<?xml version="1.0" encoding="UTF-8" standalone="no"?>
<!DOCTYPE svg PUBLIC "-//W3C//DTD SVG 1.1//EN"
 "http://www.w3.org/Graphics/SVG/1.1/DTD/svg11.dtd">
<!-- Generated by graphviz version 11.0.0 (20240428.1522)
 -->
<!-- Title: EFG Pages: 1 -->
<svg width="933pt" height="216pt"
 viewBox="0.00 0.00 932.75 215.50" xmlns="http://www.w3.org/2000/svg" xmlns:xlink="http://www.w3.org/1999/xlink">
<g id="graph0" class="graph" transform="scale(1 1) rotate(0) translate(4 211.5)">
<title>EFG</title>
<polygon fill="white" stroke="none" points="-4,4 -4,-211.5 928.75,-211.5 928.75,4 -4,4"/>
<!-- p0 -->
<g id="node1" class="node">
<title>p0</title>
<ellipse fill="none" stroke="black" cx="123.75" cy="-182" rx="27" ry="18"/>
<text text-anchor="middle" x="123.75" y="-176.95" font-family="Times,serif" font-size="14.00">p0</text>
</g>
<!-- p4 -->
<g id="node2" class="node">
<title>p4</title>
<ellipse fill="none" stroke="black" cx="220.5" cy="-128" rx="27" ry="18"/>
<text text-anchor="middle" x="220.5" y="-122.95" font-family="Times,serif" font-size="14.00">p4</text>
</g>
<!-- p0&#45;&gt;p4 -->
<g id="edge1" class="edge">
<title>p0&#45;&gt;p4</title>
<path fill="none" stroke="black" d="M144.84,-170.55C157.82,-163.15 174.94,-153.4 189.51,-145.09"/>
<polygon fill="black" stroke="black" points="190.84,-148.36 197.79,-140.37 187.37,-142.28 190.84,-148.36"/>
<text text-anchor="middle" x="172.12" y="-159.2" font-family="Times,serif" font-size="14.00">1</text>
</g>
<!-- p2 -->
<g id="node5" class="node">
<title>p2</title>
<ellipse fill="none" stroke="black" cx="317.25" cy="-137" rx="27" ry="18"/>
<text text-anchor="middle" x="317.25" y="-131.95" font-family="Times,serif" font-size="14.00">p2</text>
</g>
<!-- p4&#45;&gt;p2 -->
<g id="edge5" class="edge">
<title>p4&#45;&gt;p2</title>
<path fill="none" stroke="black" d="M247.64,-130.48C257.27,-131.4 268.38,-132.45 278.81,-133.44"/>
<polygon fill="black" stroke="black" points="278.4,-136.92 288.69,-134.38 279.06,-129.95 278.4,-136.92"/>
<text text-anchor="middle" x="268.88" y="-135.2" font-family="Times,serif" font-size="14.00">1</text>
</g>
<!-- p3 -->
<g id="node7" class="node">
<title>p3</title>
<ellipse fill="none" stroke="black" cx="317.25" cy="-83" rx="27" ry="18"/>
<text text-anchor="middle" x="317.25" y="-77.95" font-family="Times,serif" font-size="14.00">p3</text>
</g>
<!-- p4&#45;&gt;p3 -->
<g id="edge6" class="edge">
<title>p4&#45;&gt;p3</title>
<path fill="none" stroke="black" d="M243,-117.79C255.15,-112.02 270.57,-104.69 284.13,-98.25"/>
<polygon fill="black" stroke="black" points="285.61,-101.43 293.14,-93.98 282.61,-95.1 285.61,-101.43"/>
<text text-anchor="middle" x="268.88" y="-110.2" font-family="Times,serif" font-size="14.00">1</text>
</g>
<!-- p1 -->
<g id="node3" class="node">
<title>p1</title>
<ellipse fill="none" stroke="black" cx="897.75" cy="-100" rx="27" ry="18"/>
<text text-anchor="middle" x="897.75" y="-94.95" font-family="Times,serif" font-size="14.00">p1</text>
</g>
<!-- p9 -->
<g id="node4" class="node">
<title>p9</title>
<ellipse fill="none" stroke="black" cx="510.75" cy="-83" rx="27" ry="18"/>
<text text-anchor="middle" x="510.75" y="-77.95" font-family="Times,serif" font-size="14.00">p9</text>
</g>
<!-- p1&#45;&gt;p9 -->
<g id="edge2" class="edge">
<title>p1&#45;&gt;p9</title>
<path fill="none" stroke="black" d="M883.41,-115.71C866.49,-133.78 835.45,-161 802,-161 606.5,-161 606.5,-161 606.5,-161 572.94,-161 544.81,-131.48 528.13,-108.76"/>
<polygon fill="black" stroke="black" points="531.16,-106.98 522.57,-100.78 525.42,-110.99 531.16,-106.98"/>
<text text-anchor="middle" x="704.25" y="-164.2" font-family="Times,serif" font-size="14.00">1</text>
</g>
<!-- p6 -->
<g id="node10" class="node">
<title>p6</title>
<ellipse fill="none" stroke="black" cx="607.5" cy="-107" rx="27" ry="18"/>
<text text-anchor="middle" x="607.5" y="-101.95" font-family="Times,serif" font-size="14.00">p6</text>
</g>
<!-- p9&#45;&gt;p6 -->
<g id="edge11" class="edge">
<title>p9&#45;&gt;p6</title>
<path fill="none" stroke="black" d="M536.15,-89.18C546.68,-91.85 559.2,-95.02 570.75,-97.94"/>
<polygon fill="black" stroke="black" points="569.83,-101.32 580.39,-100.39 571.55,-94.54 569.83,-101.32"/>
<text text-anchor="middle" x="559.12" y="-99.2" font-family="Times,serif" font-size="14.00">1</text>
</g>
<!-- p8 -->
<g id="node14" class="node">
<title>p8</title>
<ellipse fill="none" stroke="black" cx="607.5" cy="-53" rx="27" ry="18"/>
<text text-anchor="middle" x="607.5" y="-47.95" font-family="Times,serif" font-size="14.00">p8</text>
</g>
<!-- p9&#45;&gt;p8 -->
<g id="edge12" class="edge">
<title>p9&#45;&gt;p8</title>
<path fill="none" stroke="black" d="M535.66,-75.43C546.66,-71.95 559.91,-67.75 571.96,-63.93"/>
<polygon fill="black" stroke="black" points="572.68,-67.38 581.16,-61.02 570.57,-60.71 572.68,-67.38"/>
<text text-anchor="middle" x="559.12" y="-72.2" font-family="Times,serif" font-size="14.00">2</text>
</g>
<!-- p1&#39; -->
<g id="node6" class="node">
<title>p1&#39;</title>
<ellipse fill="none" stroke="black" cx="414" cy="-141" rx="27" ry="18"/>
<text text-anchor="middle" x="414" y="-135.95" font-family="Times,serif" font-size="14.00">p1&#39;</text>
</g>
<!-- p2&#45;&gt;p1&#39; -->
<g id="edge3" class="edge">
<title>p2&#45;&gt;p1&#39;</title>
<path fill="none" stroke="black" d="M344.64,-138.11C354.19,-138.52 365.16,-138.98 375.48,-139.42"/>
<polygon fill="black" stroke="black" points="375.1,-142.9 385.24,-139.83 375.39,-135.91 375.1,-142.9"/>
<text text-anchor="middle" x="365.62" y="-142.2" font-family="Times,serif" font-size="14.00">1</text>
</g>
<!-- h0&#39; -->
<g id="node17" class="node">
<title>h0&#39;</title>
<ellipse fill="none" stroke="black" cx="510.75" cy="-173" rx="27" ry="18"/>
<text text-anchor="middle" x="510.75" y="-167.95" font-family="Times,serif" font-size="14.00">h0&#39;</text>
</g>
<!-- p1&#39;&#45;&gt;h0&#39; -->
<g id="edge16" class="edge">
<title>p1&#39;&#45;&gt;h0&#39;</title>
<path fill="none" stroke="black" d="M438.42,-148.91C449.58,-152.68 463.15,-157.26 475.44,-161.41"/>
<polygon fill="black" stroke="black" points="474.24,-164.7 484.84,-164.59 476.48,-158.07 474.24,-164.7"/>
<text text-anchor="middle" x="462.38" y="-160.2" font-family="Times,serif" font-size="14.00">1</text>
</g>
<!-- p0&#39; -->
<g id="node8" class="node">
<title>p0&#39;</title>
<ellipse fill="none" stroke="black" cx="414" cy="-83" rx="27" ry="18"/>
<text text-anchor="middle" x="414" y="-77.95" font-family="Times,serif" font-size="14.00">p0&#39;</text>
</g>
<!-- p3&#45;&gt;p0&#39; -->
<g id="edge4" class="edge">
<title>p3&#45;&gt;p0&#39;</title>
<path fill="none" stroke="black" d="M344.64,-83C354.19,-83 365.16,-83 375.48,-83"/>
<polygon fill="black" stroke="black" points="375.23,-86.5 385.23,-83 375.23,-79.5 375.23,-86.5"/>
<text text-anchor="middle" x="365.62" y="-86.2" font-family="Times,serif" font-size="14.00">1</text>
</g>
<!-- p0&#39;&#45;&gt;p9 -->
<g id="edge15" class="edge">
<title>p0&#39;&#45;&gt;p9</title>
<path fill="none" stroke="black" d="M441.39,-83C450.94,-83 461.91,-83 472.23,-83"/>
<polygon fill="black" stroke="black" points="471.98,-86.5 481.98,-83 471.98,-79.5 471.98,-86.5"/>
<text text-anchor="middle" x="462.38" y="-86.2" font-family="Times,serif" font-size="14.00">1</text>
</g>
<!-- p5 -->
<g id="node9" class="node">
<title>p5</title>
<ellipse fill="none" stroke="black" cx="897.75" cy="-37" rx="27" ry="18"/>
<text text-anchor="middle" x="897.75" y="-31.95" font-family="Times,serif" font-size="14.00">p5</text>
</g>
<!-- p5&#45;&gt;p9 -->
<g id="edge7" class="edge">
<title>p5&#45;&gt;p9</title>
<path fill="none" stroke="black" d="M877.64,-24.68C859.08,-13.92 829.73,0 802,0 606.5,0 606.5,0 606.5,0 571.52,0 543.26,-32.41 526.98,-56.72"/>
<polygon fill="black" stroke="black" points="524.17,-54.61 521.76,-64.93 530.08,-58.37 524.17,-54.61"/>
<text text-anchor="middle" x="704.25" y="-3.2" font-family="Times,serif" font-size="14.00">1</text>
</g>
<!-- t -->
<g id="node11" class="node">
<title>t</title>
<ellipse fill="none" stroke="black" cx="704.25" cy="-107" rx="27" ry="18"/>
<text text-anchor="middle" x="704.25" y="-101.95" font-family="Times,serif" font-size="14.00">t</text>
</g>
<!-- p6&#45;&gt;t -->
<g id="edge8" class="edge">
<title>p6&#45;&gt;t</title>
<path fill="none" stroke="black" d="M634.89,-107C644.44,-107 655.41,-107 665.73,-107"/>
<polygon fill="black" stroke="black" points="665.48,-110.5 675.48,-107 665.48,-103.5 665.48,-110.5"/>
<text text-anchor="middle" x="655.88" y="-110.2" font-family="Times,serif" font-size="14.00">1</text>
</g>
<!-- p7 -->
<g id="node12" class="node">
<title>p7</title>
<ellipse fill="none" stroke="black" cx="704.25" cy="-53" rx="27" ry="18"/>
<text text-anchor="middle" x="704.25" y="-47.95" font-family="Times,serif" font-size="14.00">p7</text>
</g>
<!-- h3&#39; -->
<g id="node13" class="node">
<title>h3&#39;</title>
<ellipse fill="none" stroke="black" cx="801" cy="-53" rx="27" ry="18"/>
<text text-anchor="middle" x="801" y="-47.95" font-family="Times,serif" font-size="14.00">h3&#39;</text>
</g>
<!-- p7&#45;&gt;h3&#39; -->
<g id="edge9" class="edge">
<title>p7&#45;&gt;h3&#39;</title>
<path fill="none" stroke="black" d="M731.64,-53C741.19,-53 752.16,-53 762.48,-53"/>
<polygon fill="black" stroke="black" points="762.23,-56.5 772.23,-53 762.23,-49.5 762.23,-56.5"/>
<text text-anchor="middle" x="752.62" y="-56.2" font-family="Times,serif" font-size="14.00">2</text>
</g>
<!-- h3&#39;&#45;&gt;p1 -->
<g id="edge18" class="edge">
<title>h3&#39;&#45;&gt;p1</title>
<path fill="none" stroke="black" d="M823.03,-63.43C835.45,-69.59 851.42,-77.52 865.32,-84.41"/>
<polygon fill="black" stroke="black" points="863.58,-87.45 874.1,-88.76 866.69,-81.18 863.58,-87.45"/>
<text text-anchor="middle" x="849.38" y="-81.2" font-family="Times,serif" font-size="14.00">1</text>
</g>
<!-- h3&#39;&#45;&gt;p5 -->
<g id="edge19" class="edge">
<title>h3&#39;&#45;&gt;p5</title>
<path fill="none" stroke="black" d="M827.39,-48.71C837.48,-47.01 849.28,-45.02 860.26,-43.16"/>
<polygon fill="black" stroke="black" points="860.52,-46.67 869.8,-41.55 859.35,-39.77 860.52,-46.67"/>
<text text-anchor="middle" x="849.38" y="-49.2" font-family="Times,serif" font-size="14.00">1</text>
</g>
<!-- p8&#45;&gt;p7 -->
<g id="edge10" class="edge">
<title>p8&#45;&gt;p7</title>
<path fill="none" stroke="black" d="M634.89,-53C644.44,-53 655.41,-53 665.73,-53"/>
<polygon fill="black" stroke="black" points="665.48,-56.5 675.48,-53 665.48,-49.5 665.48,-56.5"/>
<text text-anchor="middle" x="655.88" y="-56.2" font-family="Times,serif" font-size="14.00">2</text>
</g>
<!-- p10 -->
<g id="node15" class="node">
<title>p10</title>
<ellipse fill="none" stroke="black" cx="123.75" cy="-119" rx="27" ry="18"/>
<text text-anchor="middle" x="123.75" y="-113.95" font-family="Times,serif" font-size="14.00">p10</text>
</g>
<!-- p10&#45;&gt;p4 -->
<g id="edge13" class="edge">
<title>p10&#45;&gt;p4</title>
<path fill="none" stroke="black" d="M151.14,-119.08C158.99,-119.3 167.61,-119.71 175.5,-120.5 178.01,-120.75 180.58,-121.06 183.18,-121.4"/>
<polygon fill="black" stroke="black" points="182.54,-124.85 192.96,-122.88 183.59,-117.93 182.54,-124.85"/>
<text text-anchor="middle" x="172.12" y="-123.2" font-family="Times,serif" font-size="14.00">1</text>
</g>
<!-- s -->
<g id="node16" class="node">
<title>s</title>
<ellipse fill="none" stroke="black" cx="27" cy="-119" rx="27" ry="18"/>
<text text-anchor="middle" x="27" y="-113.95" font-family="Times,serif" font-size="14.00">s</text>
</g>
<!-- s&#45;&gt;p10 -->
<g id="edge14" class="edge">
<title>s&#45;&gt;p10</title>
<path fill="none" stroke="black" d="M54.39,-119C63.94,-119 74.91,-119 85.23,-119"/>
<polygon fill="black" stroke="black" points="84.98,-122.5 94.98,-119 84.98,-115.5 84.98,-122.5"/>
<text text-anchor="middle" x="75.38" y="-122.2" font-family="Times,serif" font-size="14.00">1</text>
</g>
<!-- h0&#39;&#45;&gt;p0 -->
<g id="edge17" class="edge">
<title>h0&#39;&#45;&gt;p0</title>
<path fill="none" stroke="black" d="M485.45,-180.22C466.45,-185.23 439.28,-191 415,-191 219.5,-191 219.5,-191 219.5,-191 200.34,-191 179.11,-189.15 161.6,-187.13"/>
<polygon fill="black" stroke="black" points="162.28,-183.69 151.93,-185.95 161.43,-190.64 162.28,-183.69"/>
<text text-anchor="middle" x="317.25" y="-194.2" font-family="Times,serif" font-size="14.00">1</text>
</g>
</g>
</svg>
