<?xml version="1.0" encoding="UTF-8" standalone="no"?>
<!DOCTYPE svg PUBLIC "-//W3C//DTD SVG 1.1//EN"
 "http://www.w3.org/Graphics/SVG/1.1/DTD/svg11.dtd">
<!-- Generated by graphviz version 11.0.0 (20240428.1522)
 -->
<!-- Title: PathGraph Pages: 1 -->
<svg width="674pt" height="242pt"
 viewBox="0.00 0.00 674.00 242.00" xmlns="http://www.w3.org/2000/svg" xmlns:xlink="http://www.w3.org/1999/xlink">
<g id="graph0" class="graph" transform="scale(1 1) rotate(0) translate(4 238)">
<title>PathGraph</title>
<polygon fill="white" stroke="none" points="-4,4 -4,-238 670,-238 670,4 -4,4"/>
<!-- s -->
<g id="node1" class="node">
<title>s</title>
<ellipse fill="none" stroke="black" cx="18" cy="-24" rx="18" ry="18"/>
<text text-anchor="middle" x="18" y="-18.95" font-family="Times,serif" font-size="14.00">s</text>
</g>
<!-- 10 -->
<g id="node12" class="node">
<title>10</title>
<polygon fill="none" stroke="black" points="126,-44.5 72,-44.5 72,-3.5 126,-3.5 126,-44.5"/>
<text text-anchor="start" x="80" y="-27.2" font-family="Times,serif" font-size="14.00">p10:</text>
<text text-anchor="start" x="80" y="-10.7" font-family="Times,serif" font-size="14.00">sA</text>
</g>
<!-- s&#45;&gt;10 -->
<g id="edge1" class="edge">
<title>s&#45;&gt;10</title>
<path fill="none" stroke="black" d="M36.14,-24C43.26,-24 51.81,-24 60.26,-24"/>
<polygon fill="black" stroke="black" points="60.05,-27.5 70.05,-24 60.05,-20.5 60.05,-27.5"/>
</g>
<!-- 0 -->
<g id="node2" class="node">
<title>0</title>
<polygon fill="none" stroke="black" points="396,-107.5 342,-107.5 342,-66.5 396,-66.5 396,-107.5"/>
<text text-anchor="start" x="350" y="-90.2" font-family="Times,serif" font-size="14.00">p0:</text>
<text text-anchor="start" x="350" y="-73.7" font-family="Times,serif" font-size="14.00">FA</text>
</g>
<!-- 4 -->
<g id="node6" class="node">
<title>4</title>
<polygon fill="none" stroke="black" points="216,-107.5 162,-107.5 162,-66.5 216,-66.5 216,-107.5"/>
<text text-anchor="start" x="170" y="-90.2" font-family="Times,serif" font-size="14.00">p4:</text>
<text text-anchor="start" x="170" y="-73.7" font-family="Times,serif" font-size="14.00">AE</text>
</g>
<!-- 0&#45;&gt;4 -->
<g id="edge3" class="edge">
<title>0&#45;&gt;4</title>
<path fill="none" stroke="black" d="M341.75,-71.61C331.04,-66.18 318.3,-60.73 306,-58 282.57,-52.79 275.43,-52.79 252,-58 243.45,-59.9 234.68,-63.11 226.54,-66.72"/>
<polygon fill="black" stroke="black" points="225.14,-63.51 217.62,-70.96 228.15,-69.83 225.14,-63.51"/>
</g>
<!-- 9 -->
<g id="node11" class="node">
<title>9</title>
<polygon fill="none" stroke="black" points="486,-107.5 432,-107.5 432,-66.5 486,-66.5 486,-107.5"/>
<text text-anchor="start" x="440" y="-90.2" font-family="Times,serif" font-size="14.00">p9:</text>
<text text-anchor="start" x="440" y="-73.7" font-family="Times,serif" font-size="14.00">AB</text>
</g>
<!-- 0&#45;&gt;9 -->
<g id="edge2" class="edge">
<title>0&#45;&gt;9</title>
<path fill="none" stroke="black" d="M396.4,-87C403.89,-87 412.18,-87 420.2,-87"/>
<polygon fill="black" stroke="black" points="420.1,-90.5 430.1,-87 420.1,-83.5 420.1,-90.5"/>
</g>
<!-- 1 -->
<g id="node3" class="node">
<title>1</title>
<polygon fill="none" stroke="black" points="396,-166.5 342,-166.5 342,-125.5 396,-125.5 396,-166.5"/>
<text text-anchor="start" x="350" y="-149.2" font-family="Times,serif" font-size="14.00">p1:</text>
<text text-anchor="start" x="350" y="-132.7" font-family="Times,serif" font-size="14.00">GA</text>
</g>
<!-- 1&#45;&gt;4 -->
<g id="edge5" class="edge">
<title>1&#45;&gt;4</title>
<path fill="none" stroke="black" d="M341.9,-163.03C317.55,-176.59 280.77,-191.02 252,-176 228.69,-163.83 212.36,-138.45 202.33,-117.9"/>
<polygon fill="black" stroke="black" points="205.63,-116.7 198.29,-109.06 199.27,-119.61 205.63,-116.7"/>
</g>
<!-- 1&#45;&gt;9 -->
<g id="edge4" class="edge">
<title>1&#45;&gt;9</title>
<path fill="none" stroke="black" d="M396.4,-128.3C404.5,-122.87 413.54,-116.81 422.15,-111.04"/>
<polygon fill="black" stroke="black" points="424,-114.01 430.36,-105.53 420.1,-108.19 424,-114.01"/>
</g>
<!-- 2 -->
<g id="node4" class="node">
<title>2</title>
<polygon fill="none" stroke="black" points="306,-166.5 252,-166.5 252,-125.5 306,-125.5 306,-166.5"/>
<text text-anchor="start" x="260" y="-149.2" font-family="Times,serif" font-size="14.00">p2:</text>
<text text-anchor="start" x="260" y="-132.7" font-family="Times,serif" font-size="14.00">EG</text>
</g>
<!-- 2&#45;&gt;1 -->
<g id="edge6" class="edge">
<title>2&#45;&gt;1</title>
<path fill="none" stroke="black" d="M306.4,-146C313.89,-146 322.18,-146 330.2,-146"/>
<polygon fill="black" stroke="black" points="330.1,-149.5 340.1,-146 330.1,-142.5 330.1,-149.5"/>
</g>
<!-- 3 -->
<g id="node5" class="node">
<title>3</title>
<polygon fill="none" stroke="black" points="306,-107.5 252,-107.5 252,-66.5 306,-66.5 306,-107.5"/>
<text text-anchor="start" x="260" y="-90.2" font-family="Times,serif" font-size="14.00">p3:</text>
<text text-anchor="start" x="260" y="-73.7" font-family="Times,serif" font-size="14.00">EF</text>
</g>
<!-- 3&#45;&gt;0 -->
<g id="edge7" class="edge">
<title>3&#45;&gt;0</title>
<path fill="none" stroke="black" d="M306.4,-87C313.89,-87 322.18,-87 330.2,-87"/>
<polygon fill="black" stroke="black" points="330.1,-90.5 340.1,-87 330.1,-83.5 330.1,-90.5"/>
</g>
<!-- 4&#45;&gt;2 -->
<g id="edge9" class="edge">
<title>4&#45;&gt;2</title>
<path fill="none" stroke="black" d="M216.4,-104.7C224.5,-110.13 233.54,-116.19 242.15,-121.96"/>
<polygon fill="black" stroke="black" points="240.1,-124.81 250.36,-127.47 244,-118.99 240.1,-124.81"/>
</g>
<!-- 4&#45;&gt;3 -->
<g id="edge8" class="edge">
<title>4&#45;&gt;3</title>
<path fill="none" stroke="black" d="M216.4,-87C223.89,-87 232.18,-87 240.2,-87"/>
<polygon fill="black" stroke="black" points="240.1,-90.5 250.1,-87 240.1,-83.5 240.1,-90.5"/>
</g>
<!-- 5 -->
<g id="node7" class="node">
<title>5</title>
<polygon fill="none" stroke="black" points="666,-58.5 612,-58.5 612,-17.5 666,-17.5 666,-58.5"/>
<text text-anchor="start" x="620" y="-41.2" font-family="Times,serif" font-size="14.00">p5:</text>
<text text-anchor="start" x="620" y="-24.7" font-family="Times,serif" font-size="14.00">DA</text>
</g>
<!-- 5&#45;&gt;4 -->
<g id="edge11" class="edge">
<title>5&#45;&gt;4</title>
<path fill="none" stroke="black" d="M611.54,-28.7C577.1,-17.45 514.82,0 460,0 368,0 368,0 368,0 313.14,0 257.54,-33.77 223.42,-59.24"/>
<polygon fill="black" stroke="black" points="221.39,-56.38 215.59,-65.24 225.65,-61.93 221.39,-56.38"/>
</g>
<!-- 5&#45;&gt;9 -->
<g id="edge10" class="edge">
<title>5&#45;&gt;9</title>
<path fill="none" stroke="black" d="M611.73,-40.51C587.91,-43.25 552.03,-48.58 522,-58 513.56,-60.65 504.8,-64.21 496.6,-67.92"/>
<polygon fill="black" stroke="black" points="495.14,-64.74 487.6,-72.19 498.13,-71.07 495.14,-64.74"/>
</g>
<!-- 6 -->
<g id="node8" class="node">
<title>6</title>
<polygon fill="none" stroke="black" points="576,-107.5 522,-107.5 522,-66.5 576,-66.5 576,-107.5"/>
<text text-anchor="start" x="530" y="-90.2" font-family="Times,serif" font-size="14.00">p6:</text>
<text text-anchor="start" x="530" y="-73.7" font-family="Times,serif" font-size="14.00">BD</text>
</g>
<!-- 6&#45;&gt;5 -->
<g id="edge12" class="edge">
<title>6&#45;&gt;5</title>
<path fill="none" stroke="black" d="M576.4,-72.3C584.32,-67.89 593.15,-62.97 601.59,-58.27"/>
<polygon fill="black" stroke="black" points="603.26,-61.35 610.29,-53.43 599.85,-55.23 603.26,-61.35"/>
</g>
<!-- 7 -->
<g id="node9" class="node">
<title>7</title>
<polygon fill="none" stroke="black" points="666,-205.5 612,-205.5 612,-164.5 666,-164.5 666,-205.5"/>
<text text-anchor="start" x="620" y="-188.2" font-family="Times,serif" font-size="14.00">p7:</text>
<text text-anchor="start" x="620" y="-171.7" font-family="Times,serif" font-size="14.00">CA</text>
</g>
<!-- 7&#45;&gt;4 -->
<g id="edge14" class="edge">
<title>7&#45;&gt;4</title>
<path fill="none" stroke="black" d="M611.53,-199.89C600.79,-205.37 588.08,-211.18 576,-215 526.19,-230.76 512.24,-234 460,-234 368,-234 368,-234 368,-234 313.32,-234 294.15,-227.83 252,-193 228.17,-173.3 211.44,-141.9 201.41,-118.38"/>
<polygon fill="black" stroke="black" points="204.72,-117.23 197.72,-109.28 198.24,-119.86 204.72,-117.23"/>
</g>
<!-- 7&#45;&gt;9 -->
<g id="edge13" class="edge">
<title>7&#45;&gt;9</title>
<path fill="none" stroke="black" d="M611.63,-170.48C581.08,-153.66 530.58,-125.86 496.33,-107"/>
<polygon fill="black" stroke="black" points="498.04,-103.95 487.59,-102.19 494.66,-110.08 498.04,-103.95"/>
</g>
<!-- 8 -->
<g id="node10" class="node">
<title>8</title>
<polygon fill="none" stroke="black" points="576,-205.5 522,-205.5 522,-164.5 576,-164.5 576,-205.5"/>
<text text-anchor="start" x="530" y="-188.2" font-family="Times,serif" font-size="14.00">p8:</text>
<text text-anchor="start" x="530" y="-171.7" font-family="Times,serif" font-size="14.00">BC</text>
</g>
<!-- 8&#45;&gt;7 -->
<g id="edge15" class="edge">
<title>8&#45;&gt;7</title>
<path fill="none" stroke="black" d="M576.4,-185C583.89,-185 592.18,-185 600.2,-185"/>
<polygon fill="black" stroke="black" points="600.1,-188.5 610.1,-185 600.1,-181.5 600.1,-188.5"/>
</g>
<!-- 9&#45;&gt;6 -->
<g id="edge17" class="edge">
<title>9&#45;&gt;6</title>
<path fill="none" stroke="black" d="M486.4,-87C493.89,-87 502.18,-87 510.2,-87"/>
<polygon fill="black" stroke="black" points="510.1,-90.5 520.1,-87 510.1,-83.5 510.1,-90.5"/>
</g>
<!-- 9&#45;&gt;8 -->
<g id="edge16" class="edge">
<title>9&#45;&gt;8</title>
<path fill="none" stroke="black" d="M478.66,-107.78C491.26,-121.82 508.07,-140.53 521.98,-156.02"/>
<polygon fill="black" stroke="black" points="519.07,-158.02 528.35,-163.12 524.28,-153.34 519.07,-158.02"/>
</g>
<!-- 10&#45;&gt;4 -->
<g id="edge19" class="edge">
<title>10&#45;&gt;4</title>
<path fill="none" stroke="black" d="M126.4,-42.9C134.58,-48.76 143.73,-55.31 152.43,-61.53"/>
<polygon fill="black" stroke="black" points="150.22,-64.25 160.39,-67.23 154.29,-58.56 150.22,-64.25"/>
</g>
<!-- 10&#45;&gt;9 -->
<g id="edge18" class="edge">
<title>10&#45;&gt;9</title>
<path fill="none" stroke="black" d="M126.28,-24.2C178.63,-25.2 299.2,-30.59 396,-58 404.43,-60.39 413.14,-63.8 421.28,-67.46"/>
<polygon fill="black" stroke="black" points="419.67,-70.57 430.2,-71.69 422.66,-64.24 419.67,-70.57"/>
</g>
</g>
</svg>
