<?xml version="1.0" encoding="UTF-8" standalone="no"?>
<!DOCTYPE svg PUBLIC "-//W3C//DTD SVG 1.1//EN"
 "http://www.w3.org/Graphics/SVG/1.1/DTD/svg11.dtd">
<!-- Generated by graphviz version 10.0.1 (20240210.2158)
 -->
<!-- Title: PathGraph Pages: 1 -->
<svg width="584pt" height="301pt"
 viewBox="0.00 0.00 584.00 301.25" xmlns="http://www.w3.org/2000/svg" xmlns:xlink="http://www.w3.org/1999/xlink">
<g id="graph0" class="graph" transform="scale(1 1) rotate(0) translate(4 297.25)">
<title>PathGraph</title>
<polygon fill="white" stroke="none" points="-4,4 -4,-297.25 580,-297.25 580,4 -4,4"/>
<!-- s -->
<g id="node1" class="node">
<title>s</title>
<ellipse fill="none" stroke="black" cx="18" cy="-106" rx="18" ry="18"/>
<text text-anchor="middle" x="18" y="-100.95" font-family="Times,serif" font-size="14.00">s</text>
</g>
<!-- 0 -->
<g id="node2" class="node">
<title>0</title>
<polygon fill="none" stroke="black" points="126,-134.75 72,-134.75 72,-77.25 126,-77.25 126,-134.75"/>
<text text-anchor="start" x="80" y="-117.45" font-family="Times,serif" font-size="14.00">p0:</text>
<text text-anchor="start" x="80" y="-100.95" font-family="Times,serif" font-size="14.00">0</text>
<text text-anchor="start" x="80" y="-84.45" font-family="Times,serif" font-size="14.00">0</text>
</g>
<!-- s&#45;&gt;0 -->
<g id="edge3" class="edge">
<title>s&#45;&gt;0</title>
<path fill="none" stroke="black" d="M36.14,-106C43.26,-106 51.81,-106 60.26,-106"/>
<polygon fill="black" stroke="black" points="60.05,-109.5 70.05,-106 60.05,-102.5 60.05,-109.5"/>
</g>
<!-- 1 -->
<g id="node3" class="node">
<title>1</title>
<polygon fill="none" stroke="black" points="216,-220.25 162,-220.25 162,-129.75 216,-129.75 216,-220.25"/>
<text text-anchor="start" x="170" y="-202.95" font-family="Times,serif" font-size="14.00">p1:</text>
<text text-anchor="start" x="170" y="-186.45" font-family="Times,serif" font-size="14.00">0</text>
<text text-anchor="start" x="170" y="-169.95" font-family="Times,serif" font-size="14.00">1</text>
<text text-anchor="start" x="170" y="-153.45" font-family="Times,serif" font-size="14.00">2</text>
<text text-anchor="start" x="170" y="-136.95" font-family="Times,serif" font-size="14.00">0</text>
</g>
<!-- s&#45;&gt;1 -->
<g id="edge2" class="edge">
<title>s&#45;&gt;1</title>
<path fill="none" stroke="black" d="M32.09,-117.46C42.33,-125.88 57.26,-137.03 72,-144 96.99,-155.81 127.21,-163.71 150.54,-168.57"/>
<polygon fill="black" stroke="black" points="149.75,-171.98 160.24,-170.49 151.1,-165.11 149.75,-171.98"/>
</g>
<!-- 2 -->
<g id="node4" class="node">
<title>2</title>
<polygon fill="none" stroke="black" points="486,-74 432,-74 432,0 486,0 486,-74"/>
<text text-anchor="start" x="440" y="-56.7" font-family="Times,serif" font-size="14.00">p2:</text>
<text text-anchor="start" x="440" y="-40.2" font-family="Times,serif" font-size="14.00">1</text>
<text text-anchor="start" x="440" y="-23.7" font-family="Times,serif" font-size="14.00">2</text>
<text text-anchor="start" x="440" y="-7.2" font-family="Times,serif" font-size="14.00">1</text>
</g>
<!-- s&#45;&gt;2 -->
<g id="edge1" class="edge">
<title>s&#45;&gt;2</title>
<path fill="none" stroke="black" d="M32.43,-94.54C59.78,-72.42 124.7,-26 188,-26 188,-26 188,-26 280,-26 328.54,-26 384.39,-30.13 420.38,-33.32"/>
<polygon fill="black" stroke="black" points="420.01,-36.8 430.29,-34.23 420.64,-29.83 420.01,-36.8"/>
</g>
<!-- 0&#45;&gt;1 -->
<g id="edge5" class="edge">
<title>0&#45;&gt;1</title>
<path fill="none" stroke="black" d="M126.4,-120.46C134.76,-126.5 144.12,-133.72 152.98,-140.92"/>
<polygon fill="black" stroke="black" points="150.52,-143.42 160.45,-147.1 154.98,-138.03 150.52,-143.42"/>
</g>
<!-- 0&#45;&gt;2 -->
<g id="edge4" class="edge">
<title>0&#45;&gt;2</title>
<path fill="none" stroke="black" d="M126.38,-97.63C137.33,-94.35 150.2,-90.72 162,-88 254.03,-66.78 364,-50.06 420.46,-42.09"/>
<polygon fill="black" stroke="black" points="420.75,-45.59 430.17,-40.74 419.78,-38.65 420.75,-45.59"/>
</g>
<!-- 1&#45;&gt;0 -->
<g id="edge7" class="edge">
<title>1&#45;&gt;0</title>
<path fill="none" stroke="black" d="M161.62,-160.56C153.26,-154.51 143.9,-147.3 135.04,-140.1"/>
<polygon fill="black" stroke="black" points="137.5,-137.59 127.57,-133.91 133.04,-142.99 137.5,-137.59"/>
</g>
<!-- 3 -->
<g id="node5" class="node">
<title>3</title>
<polygon fill="none" stroke="black" points="306,-293.25 252,-293.25 252,-202.75 306,-202.75 306,-293.25"/>
<text text-anchor="start" x="260" y="-275.95" font-family="Times,serif" font-size="14.00">p3:</text>
<text text-anchor="start" x="260" y="-259.45" font-family="Times,serif" font-size="14.00">1</text>
<text text-anchor="start" x="260" y="-242.95" font-family="Times,serif" font-size="14.00">2</text>
<text text-anchor="start" x="260" y="-226.45" font-family="Times,serif" font-size="14.00">0</text>
<text text-anchor="start" x="260" y="-209.95" font-family="Times,serif" font-size="14.00">1</text>
</g>
<!-- 1&#45;&gt;3 -->
<g id="edge6" class="edge">
<title>1&#45;&gt;3</title>
<path fill="none" stroke="black" d="M216.4,-196.9C224.76,-203.83 234.12,-211.6 242.98,-218.95"/>
<polygon fill="black" stroke="black" points="240.52,-221.46 250.45,-225.15 244.99,-216.07 240.52,-221.46"/>
</g>
<!-- 5 -->
<g id="node7" class="node">
<title>5</title>
<polygon fill="none" stroke="black" points="576,-106 522,-106 522,-32 576,-32 576,-106"/>
<text text-anchor="start" x="530" y="-88.7" font-family="Times,serif" font-size="14.00">p5:</text>
<text text-anchor="start" x="530" y="-72.2" font-family="Times,serif" font-size="14.00">2</text>
<text text-anchor="start" x="530" y="-55.7" font-family="Times,serif" font-size="14.00">1</text>
<text text-anchor="start" x="530" y="-39.2" font-family="Times,serif" font-size="14.00">2</text>
</g>
<!-- 2&#45;&gt;5 -->
<g id="edge8" class="edge">
<title>2&#45;&gt;5</title>
<path fill="none" stroke="black" d="M486.4,-40.36C494.15,-42.7 502.76,-45.69 511.04,-48.89"/>
<polygon fill="black" stroke="black" points="509.63,-52.09 520.21,-52.59 512.25,-45.6 509.63,-52.09"/>
</g>
<!-- 4 -->
<g id="node6" class="node">
<title>4</title>
<polygon fill="none" stroke="black" points="396,-220.25 342,-220.25 342,-129.75 396,-129.75 396,-220.25"/>
<text text-anchor="start" x="350" y="-202.95" font-family="Times,serif" font-size="14.00">p4:</text>
<text text-anchor="start" x="350" y="-186.45" font-family="Times,serif" font-size="14.00">2</text>
<text text-anchor="start" x="350" y="-169.95" font-family="Times,serif" font-size="14.00">0</text>
<text text-anchor="start" x="350" y="-153.45" font-family="Times,serif" font-size="14.00">1</text>
<text text-anchor="start" x="350" y="-136.95" font-family="Times,serif" font-size="14.00">2</text>
</g>
<!-- 3&#45;&gt;4 -->
<g id="edge9" class="edge">
<title>3&#45;&gt;4</title>
<path fill="none" stroke="black" d="M306.4,-226.1C314.76,-219.17 324.12,-211.4 332.98,-204.05"/>
<polygon fill="black" stroke="black" points="334.99,-206.93 340.45,-197.85 330.52,-201.54 334.99,-206.93"/>
</g>
<!-- 4&#45;&gt;1 -->
<g id="edge11" class="edge">
<title>4&#45;&gt;1</title>
<path fill="none" stroke="black" d="M341.63,-175C311.48,-175 261.88,-175 227.67,-175"/>
<polygon fill="black" stroke="black" points="227.78,-171.5 217.78,-175 227.78,-178.5 227.78,-171.5"/>
</g>
<!-- 4&#45;&gt;2 -->
<g id="edge10" class="edge">
<title>4&#45;&gt;2</title>
<path fill="none" stroke="black" d="M396.4,-133.6C406.48,-117.8 418.02,-99.69 428.37,-83.46"/>
<polygon fill="black" stroke="black" points="431.07,-85.74 433.5,-75.42 425.17,-81.97 431.07,-85.74"/>
</g>
<!-- 5&#45;&gt;0 -->
<g id="edge14" class="edge">
<title>5&#45;&gt;0</title>
<path fill="none" stroke="black" d="M521.74,-76.99C487.27,-86.75 424.69,-102 370,-102 278,-102 278,-102 278,-102 229.54,-102 173.68,-103.5 137.65,-104.66"/>
<polygon fill="black" stroke="black" points="137.63,-101.16 127.75,-104.99 137.86,-108.16 137.63,-101.16"/>
</g>
<!-- 5&#45;&gt;2 -->
<g id="edge13" class="edge">
<title>5&#45;&gt;2</title>
<path fill="none" stroke="black" d="M521.62,-65.65C513.87,-63.3 505.26,-60.31 496.98,-57.12"/>
<polygon fill="black" stroke="black" points="498.39,-53.91 487.81,-53.41 495.77,-60.4 498.39,-53.91"/>
</g>
<!-- 5&#45;&gt;3 -->
<g id="edge12" class="edge">
<title>5&#45;&gt;3</title>
<path fill="none" stroke="black" d="M523.51,-106.48C496.87,-143.96 450.69,-200.06 396,-229 371.93,-241.74 341.43,-246.36 317.75,-247.86"/>
<polygon fill="black" stroke="black" points="317.73,-244.36 307.9,-248.31 318.05,-251.35 317.73,-244.36"/>
</g>
</g>
</svg>
