<?xml version="1.0" encoding="UTF-8" standalone="no"?>
<!DOCTYPE svg PUBLIC "-//W3C//DTD SVG 1.1//EN"
 "http://www.w3.org/Graphics/SVG/1.1/DTD/svg11.dtd">
<!-- Generated by graphviz version 10.0.1 (20240210.2158)
 -->
<!-- Title: PathGraph Pages: 1 -->
<svg width="195pt" height="737pt"
 viewBox="0.00 0.00 194.66 737.00" xmlns="http://www.w3.org/2000/svg" xmlns:xlink="http://www.w3.org/1999/xlink">
<g id="graph0" class="graph" transform="scale(1 1) rotate(0) translate(4 733)">
<title>PathGraph</title>
<polygon fill="white" stroke="none" points="-4,4 -4,-733 190.66,-733 190.66,4 -4,4"/>
<!-- s -->
<g id="node1" class="node">
<title>s</title>
<ellipse fill="none" stroke="black" cx="65.66" cy="-711" rx="18" ry="18"/>
<text text-anchor="middle" x="65.66" y="-705.95" font-family="Times,serif" font-size="14.00">s</text>
</g>
<!-- 0 -->
<g id="node2" class="node">
<title>0</title>
<polygon fill="none" stroke="black" points="147.66,-657 93.66,-657 93.66,-599.5 147.66,-599.5 147.66,-657"/>
<text text-anchor="start" x="101.66" y="-639.7" font-family="Times,serif" font-size="14.00">p0:</text>
<text text-anchor="start" x="101.66" y="-623.2" font-family="Times,serif" font-size="14.00">0</text>
<text text-anchor="start" x="101.66" y="-606.7" font-family="Times,serif" font-size="14.00">0</text>
</g>
<!-- s&#45;&gt;0 -->
<g id="edge3" class="edge">
<title>s&#45;&gt;0</title>
<path fill="none" stroke="black" d="M75.49,-695.56C81.03,-687.44 88.22,-676.88 95.23,-666.58"/>
<polygon fill="black" stroke="black" points="97.98,-668.77 100.71,-658.53 92.19,-664.83 97.98,-668.77"/>
</g>
<!-- 1 -->
<g id="node3" class="node">
<title>1</title>
<polygon fill="none" stroke="black" points="120.66,-563.5 66.66,-563.5 66.66,-473 120.66,-473 120.66,-563.5"/>
<text text-anchor="start" x="74.66" y="-546.2" font-family="Times,serif" font-size="14.00">p1:</text>
<text text-anchor="start" x="74.66" y="-529.7" font-family="Times,serif" font-size="14.00">0</text>
<text text-anchor="start" x="74.66" y="-513.2" font-family="Times,serif" font-size="14.00">1</text>
<text text-anchor="start" x="74.66" y="-496.7" font-family="Times,serif" font-size="14.00">2</text>
<text text-anchor="start" x="74.66" y="-480.2" font-family="Times,serif" font-size="14.00">0</text>
</g>
<!-- s&#45;&gt;1 -->
<g id="edge2" class="edge">
<title>s&#45;&gt;1</title>
<path fill="none" stroke="black" d="M68.19,-692.74C72.06,-666.39 79.61,-614.98 85.48,-574.93"/>
<polygon fill="black" stroke="black" points="88.92,-575.61 86.91,-565.2 82,-574.59 88.92,-575.61"/>
</g>
<!-- 2 -->
<g id="node4" class="node">
<title>2</title>
<polygon fill="none" stroke="black" points="82.66,-184 28.66,-184 28.66,-110 82.66,-110 82.66,-184"/>
<text text-anchor="start" x="36.66" y="-166.7" font-family="Times,serif" font-size="14.00">p2:</text>
<text text-anchor="start" x="36.66" y="-150.2" font-family="Times,serif" font-size="14.00">1</text>
<text text-anchor="start" x="36.66" y="-133.7" font-family="Times,serif" font-size="14.00">2</text>
<text text-anchor="start" x="36.66" y="-117.2" font-family="Times,serif" font-size="14.00">1</text>
</g>
<!-- s&#45;&gt;2 -->
<g id="edge1" class="edge">
<title>s&#45;&gt;2</title>
<path fill="none" stroke="black" d="M56.89,-695.26C39.15,-663.98 0.66,-588.17 0.66,-519.25 0.66,-519.25 0.66,-519.25 0.66,-390.75 0.66,-314.39 -1.97,-293.23 19.66,-220 22.16,-211.52 25.63,-202.83 29.43,-194.56"/>
<polygon fill="black" stroke="black" points="32.51,-196.23 33.71,-185.71 26.21,-193.18 32.51,-196.23"/>
</g>
<!-- 0&#45;&gt;1 -->
<g id="edge5" class="edge">
<title>0&#45;&gt;1</title>
<path fill="none" stroke="black" d="M107.63,-599.16C105.3,-591.68 102.96,-583.34 100.83,-574.94"/>
<polygon fill="black" stroke="black" points="104.28,-574.31 98.53,-565.41 97.48,-575.95 104.28,-574.31"/>
</g>
<!-- 0&#45;&gt;2 -->
<g id="edge4" class="edge">
<title>0&#45;&gt;2</title>
<path fill="none" stroke="black" d="M125.5,-599.1C127.17,-588.04 128.84,-575.21 129.66,-563.5 140.42,-410.28 148.31,-362.77 91.66,-220 88.36,-211.69 84.46,-203.03 80.47,-194.73"/>
<polygon fill="black" stroke="black" points="83.63,-193.22 76.07,-185.8 77.35,-196.32 83.63,-193.22"/>
</g>
<!-- 1&#45;&gt;0 -->
<g id="edge7" class="edge">
<title>1&#45;&gt;0</title>
<path fill="none" stroke="black" d="M111.49,-563.94C113.65,-571.95 115.67,-580.24 117.38,-588.08"/>
<polygon fill="black" stroke="black" points="113.91,-588.57 119.34,-597.67 120.77,-587.18 113.91,-588.57"/>
</g>
<!-- 3 -->
<g id="node5" class="node">
<title>3</title>
<polygon fill="none" stroke="black" points="120.66,-437 66.66,-437 66.66,-346.5 120.66,-346.5 120.66,-437"/>
<text text-anchor="start" x="74.66" y="-419.7" font-family="Times,serif" font-size="14.00">p3:</text>
<text text-anchor="start" x="74.66" y="-403.2" font-family="Times,serif" font-size="14.00">1</text>
<text text-anchor="start" x="74.66" y="-386.7" font-family="Times,serif" font-size="14.00">2</text>
<text text-anchor="start" x="74.66" y="-370.2" font-family="Times,serif" font-size="14.00">0</text>
<text text-anchor="start" x="74.66" y="-353.7" font-family="Times,serif" font-size="14.00">1</text>
</g>
<!-- 1&#45;&gt;3 -->
<g id="edge6" class="edge">
<title>1&#45;&gt;3</title>
<path fill="none" stroke="black" d="M93.66,-472.65C93.66,-464.97 93.66,-456.89 93.66,-448.94"/>
<polygon fill="black" stroke="black" points="97.16,-448.97 93.66,-438.97 90.16,-448.97 97.16,-448.97"/>
</g>
<!-- 5 -->
<g id="node7" class="node">
<title>5</title>
<polygon fill="none" stroke="black" points="109.66,-74 55.66,-74 55.66,0 109.66,0 109.66,-74"/>
<text text-anchor="start" x="63.66" y="-56.7" font-family="Times,serif" font-size="14.00">p5:</text>
<text text-anchor="start" x="63.66" y="-40.2" font-family="Times,serif" font-size="14.00">2</text>
<text text-anchor="start" x="63.66" y="-23.7" font-family="Times,serif" font-size="14.00">1</text>
<text text-anchor="start" x="63.66" y="-7.2" font-family="Times,serif" font-size="14.00">2</text>
</g>
<!-- 2&#45;&gt;5 -->
<g id="edge8" class="edge">
<title>2&#45;&gt;5</title>
<path fill="none" stroke="black" d="M58.31,-109.74C59.96,-101.9 61.96,-93.5 64.13,-85.32"/>
<polygon fill="black" stroke="black" points="67.46,-86.38 66.75,-75.81 60.71,-84.52 67.46,-86.38"/>
</g>
<!-- 4 -->
<g id="node6" class="node">
<title>4</title>
<polygon fill="none" stroke="black" points="82.66,-310.5 28.66,-310.5 28.66,-220 82.66,-220 82.66,-310.5"/>
<text text-anchor="start" x="36.66" y="-293.2" font-family="Times,serif" font-size="14.00">p4:</text>
<text text-anchor="start" x="36.66" y="-276.7" font-family="Times,serif" font-size="14.00">2</text>
<text text-anchor="start" x="36.66" y="-260.2" font-family="Times,serif" font-size="14.00">0</text>
<text text-anchor="start" x="36.66" y="-243.7" font-family="Times,serif" font-size="14.00">1</text>
<text text-anchor="start" x="36.66" y="-227.2" font-family="Times,serif" font-size="14.00">2</text>
</g>
<!-- 3&#45;&gt;4 -->
<g id="edge9" class="edge">
<title>3&#45;&gt;4</title>
<path fill="none" stroke="black" d="M80.05,-346.15C77.65,-338.29 75.12,-330.01 72.64,-321.89"/>
<polygon fill="black" stroke="black" points="76.01,-320.94 69.74,-312.4 69.32,-322.99 76.01,-320.94"/>
</g>
<!-- 4&#45;&gt;1 -->
<g id="edge11" class="edge">
<title>4&#45;&gt;1</title>
<path fill="none" stroke="black" d="M51.27,-310.68C49.01,-345.48 48.38,-394.87 57.66,-437 59.48,-445.3 62.22,-453.77 65.37,-461.97"/>
<polygon fill="black" stroke="black" points="62.11,-463.22 69.15,-471.13 68.58,-460.55 62.11,-463.22"/>
</g>
<!-- 4&#45;&gt;2 -->
<g id="edge10" class="edge">
<title>4&#45;&gt;2</title>
<path fill="none" stroke="black" d="M55.66,-219.64C55.66,-211.81 55.66,-203.63 55.66,-195.72"/>
<polygon fill="black" stroke="black" points="59.16,-195.91 55.66,-185.91 52.16,-195.91 59.16,-195.91"/>
</g>
<!-- 5&#45;&gt;0 -->
<g id="edge14" class="edge">
<title>5&#45;&gt;0</title>
<path fill="none" stroke="black" d="M109.98,-72.56C140.8,-115.1 186.66,-190.76 186.66,-264.25 186.66,-392.75 186.66,-392.75 186.66,-392.75 186.66,-464.01 158.07,-543.05 138.52,-588.76"/>
<polygon fill="black" stroke="black" points="135.41,-587.14 134.62,-597.7 141.83,-589.94 135.41,-587.14"/>
</g>
<!-- 5&#45;&gt;2 -->
<g id="edge13" class="edge">
<title>5&#45;&gt;2</title>
<path fill="none" stroke="black" d="M79.99,-74.35C78.33,-82.19 76.33,-90.59 74.17,-98.78"/>
<polygon fill="black" stroke="black" points="70.83,-97.71 71.54,-108.28 77.58,-99.57 70.83,-97.71"/>
</g>
<!-- 5&#45;&gt;3 -->
<g id="edge12" class="edge">
<title>5&#45;&gt;3</title>
<path fill="none" stroke="black" d="M88.02,-74.18C89.49,-85.61 90.89,-98.31 91.66,-110 96.8,-188.04 96.28,-278.54 95.18,-335.22"/>
<polygon fill="black" stroke="black" points="91.68,-334.86 94.97,-344.93 98.68,-335 91.68,-334.86"/>
</g>
</g>
</svg>
