<?xml version="1.0" encoding="UTF-8" standalone="no"?>
<!DOCTYPE svg PUBLIC "-//W3C//DTD SVG 1.1//EN"
 "http://www.w3.org/Graphics/SVG/1.1/DTD/svg11.dtd">
<!-- Generated by graphviz version 10.0.1 (20240210.2158)
 -->
<!-- Title: SimpleGraph Pages: 1 -->
<svg width="90pt" height="225pt"
 viewBox="0.00 0.00 90.00 225.44" xmlns="http://www.w3.org/2000/svg" xmlns:xlink="http://www.w3.org/1999/xlink">
<g id="graph0" class="graph" transform="scale(1 1) rotate(0) translate(4 221.44)">
<title>SimpleGraph</title>
<polygon fill="white" stroke="none" points="-4,4 -4,-221.44 86,-221.44 86,4 -4,4"/>
<!-- reset -->
<g id="node1" class="node">
<title>reset</title>
</g>
<!-- 0 -->
<g id="node4" class="node">
<title>0</title>
<polygon fill="none" stroke="black" points="54,-180 0,-180 0,-144 54,-144 54,-180"/>
<text text-anchor="middle" x="27" y="-156.95" font-family="Times,serif" font-size="14.00">0</text>
</g>
<!-- reset&#45;&gt;0 -->
<g id="edge1" class="edge">
<title>reset&#45;&gt;0</title>
<path fill="none" stroke="black" d="M27,-215.85C27,-214.44 27,-203.41 27,-191.79"/>
<polygon fill="black" stroke="black" points="30.5,-191.82 27,-181.82 23.5,-191.82 30.5,-191.82"/>
</g>
<!-- 2 -->
<g id="node2" class="node">
<title>2</title>
<polygon fill="none" stroke="black" points="82,-36 28,-36 28,0 82,0 82,-36"/>
<text text-anchor="middle" x="55" y="-12.95" font-family="Times,serif" font-size="14.00">2</text>
</g>
<!-- 1 -->
<g id="node3" class="node">
<title>1</title>
<polygon fill="none" stroke="black" points="82,-108 28,-108 28,-72 82,-72 82,-108"/>
<text text-anchor="middle" x="55" y="-84.95" font-family="Times,serif" font-size="14.00">1</text>
</g>
<!-- 2&#45;&gt;1 -->
<g id="edge2" class="edge">
<title>2&#45;&gt;1</title>
<path fill="none" stroke="black" d="M60.9,-36.1C61.66,-43.37 61.91,-52.04 61.65,-60.24"/>
<polygon fill="black" stroke="black" points="58.16,-59.98 61.01,-70.19 65.15,-60.43 58.16,-59.98"/>
</g>
<!-- 2&#45;&gt;0 -->
<g id="edge3" class="edge">
<title>2&#45;&gt;0</title>
<path fill="none" stroke="black" d="M39.39,-36.23C31.63,-45.97 23.05,-58.82 19,-72 12.97,-91.61 15.31,-114.71 18.97,-132.47"/>
<polygon fill="black" stroke="black" points="15.53,-133.12 21.22,-142.06 22.35,-131.52 15.53,-133.12"/>
</g>
<!-- 1&#45;&gt;2 -->
<g id="edge4" class="edge">
<title>1&#45;&gt;2</title>
<path fill="none" stroke="black" d="M49.08,-71.7C48.33,-64.41 48.09,-55.73 48.35,-47.54"/>
<polygon fill="black" stroke="black" points="51.84,-47.82 49.01,-37.61 44.86,-47.36 51.84,-47.82"/>
</g>
<!-- 0&#45;&gt;1 -->
<g id="edge5" class="edge">
<title>0&#45;&gt;1</title>
<path fill="none" stroke="black" d="M33.92,-143.7C36.94,-136.15 40.55,-127.12 43.93,-118.68"/>
<polygon fill="black" stroke="black" points="47.13,-120.09 47.6,-109.51 40.63,-117.49 47.13,-120.09"/>
</g>
<!-- 0&#45;&gt;0 -->
<g id="edge6" class="edge">
<title>0&#45;&gt;0</title>
<path fill="none" stroke="black" d="M54.24,-172.25C64.02,-172.47 72,-169.05 72,-162 72,-158.03 69.48,-155.22 65.53,-153.55"/>
<polygon fill="black" stroke="black" points="66.16,-150.11 55.74,-151.99 65.06,-157.02 66.16,-150.11"/>
</g>
</g>
</svg>
