<?xml version="1.0" encoding="UTF-8" standalone="no"?>
<!DOCTYPE svg PUBLIC "-//W3C//DTD SVG 1.1//EN"
 "http://www.w3.org/Graphics/SVG/1.1/DTD/svg11.dtd">
<!-- Generated by graphviz version 11.0.0 (20240428.1522)
 -->
<!-- Title: EFG Pages: 1 -->
<svg width="980pt" height="98pt"
 viewBox="0.00 0.00 980.00 98.00" xmlns="http://www.w3.org/2000/svg" xmlns:xlink="http://www.w3.org/1999/xlink">
<g id="graph0" class="graph" transform="scale(1 1) rotate(0) translate(4 94)">
<title>EFG</title>
<polygon fill="white" stroke="none" points="-4,4 -4,-94 976,-94 976,4 -4,4"/>
<!-- p0 -->
<g id="node1" class="node">
<title>p0</title>
<ellipse fill="none" stroke="black" cx="123.75" cy="-45" rx="27" ry="18"/>
<text text-anchor="middle" x="123.75" y="-39.95" font-family="Times,serif" font-size="14.00">p0</text>
</g>
<!-- p1 -->
<g id="node2" class="node">
<title>p1</title>
<ellipse fill="none" stroke="black" cx="220.5" cy="-45" rx="27" ry="18"/>
<text text-anchor="middle" x="220.5" y="-39.95" font-family="Times,serif" font-size="14.00">p1</text>
</g>
<!-- p0&#45;&gt;p1 -->
<g id="edge1" class="edge">
<title>p0&#45;&gt;p1</title>
<path fill="none" stroke="black" d="M151.14,-45C160.69,-45 171.66,-45 181.98,-45"/>
<polygon fill="black" stroke="black" points="181.73,-48.5 191.73,-45 181.73,-41.5 181.73,-48.5"/>
<text text-anchor="middle" x="172.12" y="-48.2" font-family="Times,serif" font-size="14.00">2</text>
</g>
<!-- p3 -->
<g id="node3" class="node">
<title>p3</title>
<ellipse fill="none" stroke="black" cx="317.25" cy="-45" rx="27" ry="18"/>
<text text-anchor="middle" x="317.25" y="-39.95" font-family="Times,serif" font-size="14.00">p3</text>
</g>
<!-- p1&#45;&gt;p3 -->
<g id="edge2" class="edge">
<title>p1&#45;&gt;p3</title>
<path fill="none" stroke="black" d="M247.89,-45C257.44,-45 268.41,-45 278.73,-45"/>
<polygon fill="black" stroke="black" points="278.48,-48.5 288.48,-45 278.48,-41.5 278.48,-48.5"/>
<text text-anchor="middle" x="268.88" y="-48.2" font-family="Times,serif" font-size="14.00">2</text>
</g>
<!-- p4 -->
<g id="node6" class="node">
<title>p4</title>
<ellipse fill="none" stroke="black" cx="414" cy="-72" rx="27" ry="18"/>
<text text-anchor="middle" x="414" y="-66.95" font-family="Times,serif" font-size="14.00">p4</text>
</g>
<!-- p3&#45;&gt;p4 -->
<g id="edge4" class="edge">
<title>p3&#45;&gt;p4</title>
<path fill="none" stroke="black" d="M342.65,-51.95C353.37,-55.01 366.16,-58.65 377.88,-61.99"/>
<polygon fill="black" stroke="black" points="376.65,-65.28 387.23,-64.66 378.57,-58.55 376.65,-65.28"/>
<text text-anchor="middle" x="365.62" y="-62.2" font-family="Times,serif" font-size="14.00">1</text>
</g>
<!-- p5 -->
<g id="node7" class="node">
<title>p5</title>
<ellipse fill="none" stroke="black" cx="414" cy="-18" rx="27" ry="18"/>
<text text-anchor="middle" x="414" y="-12.95" font-family="Times,serif" font-size="14.00">p5</text>
</g>
<!-- p3&#45;&gt;p5 -->
<g id="edge5" class="edge">
<title>p3&#45;&gt;p5</title>
<path fill="none" stroke="black" d="M342.65,-38.05C353.37,-34.99 366.16,-31.35 377.88,-28.01"/>
<polygon fill="black" stroke="black" points="378.57,-31.45 387.23,-25.34 376.65,-24.72 378.57,-31.45"/>
<text text-anchor="middle" x="365.62" y="-36.2" font-family="Times,serif" font-size="14.00">1</text>
</g>
<!-- p2 -->
<g id="node4" class="node">
<title>p2</title>
<ellipse fill="none" stroke="black" cx="607.5" cy="-72" rx="27" ry="18"/>
<text text-anchor="middle" x="607.5" y="-66.95" font-family="Times,serif" font-size="14.00">p2</text>
</g>
<!-- p9 -->
<g id="node5" class="node">
<title>p9</title>
<ellipse fill="none" stroke="black" cx="704.25" cy="-71" rx="27" ry="18"/>
<text text-anchor="middle" x="704.25" y="-65.95" font-family="Times,serif" font-size="14.00">p9</text>
</g>
<!-- p2&#45;&gt;p9 -->
<g id="edge3" class="edge">
<title>p2&#45;&gt;p9</title>
<path fill="none" stroke="black" d="M634.89,-71.72C644.44,-71.62 655.41,-71.5 665.73,-71.4"/>
<polygon fill="black" stroke="black" points="665.52,-74.9 675.48,-71.29 665.45,-67.9 665.52,-74.9"/>
<text text-anchor="middle" x="655.88" y="-74.2" font-family="Times,serif" font-size="14.00">1</text>
</g>
<!-- p10 -->
<g id="node13" class="node">
<title>p10</title>
<ellipse fill="none" stroke="black" cx="848.25" cy="-71" rx="27" ry="18"/>
<text text-anchor="middle" x="848.25" y="-65.95" font-family="Times,serif" font-size="14.00">p10</text>
</g>
<!-- p9&#45;&gt;p10 -->
<g id="edge11" class="edge">
<title>p9&#45;&gt;p10</title>
<path fill="none" stroke="black" d="M731.63,-71C753.55,-71 785.01,-71 809.58,-71"/>
<polygon fill="black" stroke="black" points="809.5,-74.5 819.5,-71 809.5,-67.5 809.5,-74.5"/>
<text text-anchor="middle" x="776.25" y="-74.2" font-family="Times,serif" font-size="14.00">1</text>
</g>
<!-- p0&#39; -->
<g id="node8" class="node">
<title>p0&#39;</title>
<ellipse fill="none" stroke="black" cx="510.75" cy="-72" rx="27" ry="18"/>
<text text-anchor="middle" x="510.75" y="-66.95" font-family="Times,serif" font-size="14.00">p0&#39;</text>
</g>
<!-- p4&#45;&gt;p0&#39; -->
<g id="edge6" class="edge">
<title>p4&#45;&gt;p0&#39;</title>
<path fill="none" stroke="black" d="M441.39,-72C450.94,-72 461.91,-72 472.23,-72"/>
<polygon fill="black" stroke="black" points="471.98,-75.5 481.98,-72 471.98,-68.5 471.98,-75.5"/>
<text text-anchor="middle" x="462.38" y="-75.2" font-family="Times,serif" font-size="14.00">1</text>
</g>
<!-- p6 -->
<g id="node9" class="node">
<title>p6</title>
<ellipse fill="none" stroke="black" cx="510.75" cy="-18" rx="27" ry="18"/>
<text text-anchor="middle" x="510.75" y="-12.95" font-family="Times,serif" font-size="14.00">p6</text>
</g>
<!-- p5&#45;&gt;p6 -->
<g id="edge7" class="edge">
<title>p5&#45;&gt;p6</title>
<path fill="none" stroke="black" d="M441.39,-18C450.94,-18 461.91,-18 472.23,-18"/>
<polygon fill="black" stroke="black" points="471.98,-21.5 481.98,-18 471.98,-14.5 471.98,-21.5"/>
<text text-anchor="middle" x="462.38" y="-21.2" font-family="Times,serif" font-size="14.00">1</text>
</g>
<!-- p0&#39;&#45;&gt;p2 -->
<g id="edge14" class="edge">
<title>p0&#39;&#45;&gt;p2</title>
<path fill="none" stroke="black" d="M538.14,-72C547.69,-72 558.66,-72 568.98,-72"/>
<polygon fill="black" stroke="black" points="568.73,-75.5 578.73,-72 568.73,-68.5 568.73,-75.5"/>
<text text-anchor="middle" x="559.12" y="-75.2" font-family="Times,serif" font-size="14.00">1</text>
</g>
<!-- p7 -->
<g id="node10" class="node">
<title>p7</title>
<ellipse fill="none" stroke="black" cx="607.5" cy="-18" rx="27" ry="18"/>
<text text-anchor="middle" x="607.5" y="-12.95" font-family="Times,serif" font-size="14.00">p7</text>
</g>
<!-- p6&#45;&gt;p7 -->
<g id="edge8" class="edge">
<title>p6&#45;&gt;p7</title>
<path fill="none" stroke="black" d="M538.14,-18C547.69,-18 558.66,-18 568.98,-18"/>
<polygon fill="black" stroke="black" points="568.73,-21.5 578.73,-18 568.73,-14.5 568.73,-21.5"/>
<text text-anchor="middle" x="559.12" y="-21.2" font-family="Times,serif" font-size="14.00">1</text>
</g>
<!-- p8 -->
<g id="node11" class="node">
<title>p8</title>
<ellipse fill="none" stroke="black" cx="776.25" cy="-18" rx="27" ry="18"/>
<text text-anchor="middle" x="776.25" y="-12.95" font-family="Times,serif" font-size="14.00">p8</text>
</g>
<!-- p7&#45;&gt;p8 -->
<g id="edge9" class="edge">
<title>p7&#45;&gt;p8</title>
<path fill="none" stroke="black" d="M634.92,-18C662.61,-18 706.35,-18 737.63,-18"/>
<polygon fill="black" stroke="black" points="737.44,-21.5 747.44,-18 737.44,-14.5 737.44,-21.5"/>
<text text-anchor="middle" x="655.88" y="-21.2" font-family="Times,serif" font-size="14.00">1</text>
</g>
<!-- t -->
<g id="node12" class="node">
<title>t</title>
<ellipse fill="none" stroke="black" cx="945" cy="-34" rx="27" ry="18"/>
<text text-anchor="middle" x="945" y="-28.95" font-family="Times,serif" font-size="14.00">t</text>
</g>
<!-- p8&#45;&gt;t -->
<g id="edge10" class="edge">
<title>p8&#45;&gt;t</title>
<path fill="none" stroke="black" d="M803.3,-20.5C831,-23.16 875.05,-27.38 906.49,-30.4"/>
<polygon fill="black" stroke="black" points="906.06,-33.88 916.35,-31.35 906.73,-26.91 906.06,-33.88"/>
<text text-anchor="middle" x="848.25" y="-31.2" font-family="Times,serif" font-size="14.00">1</text>
</g>
<!-- p10&#45;&gt;t -->
<g id="edge12" class="edge">
<title>p10&#45;&gt;t</title>
<path fill="none" stroke="black" d="M872.19,-62.04C883.71,-57.54 897.89,-52.01 910.59,-47.05"/>
<polygon fill="black" stroke="black" points="911.82,-50.32 919.87,-43.42 909.28,-43.8 911.82,-50.32"/>
<text text-anchor="middle" x="896.62" y="-56.2" font-family="Times,serif" font-size="14.00">1</text>
</g>
<!-- s -->
<g id="node14" class="node">
<title>s</title>
<ellipse fill="none" stroke="black" cx="27" cy="-45" rx="27" ry="18"/>
<text text-anchor="middle" x="27" y="-39.95" font-family="Times,serif" font-size="14.00">s</text>
</g>
<!-- s&#45;&gt;p0 -->
<g id="edge13" class="edge">
<title>s&#45;&gt;p0</title>
<path fill="none" stroke="black" d="M54.39,-45C63.94,-45 74.91,-45 85.23,-45"/>
<polygon fill="black" stroke="black" points="84.98,-48.5 94.98,-45 84.98,-41.5 84.98,-48.5"/>
<text text-anchor="middle" x="75.38" y="-48.2" font-family="Times,serif" font-size="14.00">2</text>
</g>
</g>
</svg>
