<?xml version="1.0" encoding="UTF-8" standalone="no"?>
<!DOCTYPE svg PUBLIC "-//W3C//DTD SVG 1.1//EN"
 "http://www.w3.org/Graphics/SVG/1.1/DTD/svg11.dtd">
<!-- Generated by graphviz version 11.0.0 (20240428.1522)
 -->
<!-- Title: PathGraph Pages: 1 -->
<svg width="674pt" height="422pt"
 viewBox="0.00 0.00 674.00 422.17" xmlns="http://www.w3.org/2000/svg" xmlns:xlink="http://www.w3.org/1999/xlink">
<g id="graph0" class="graph" transform="scale(1 1) rotate(0) translate(4 418.17)">
<title>PathGraph</title>
<polygon fill="white" stroke="none" points="-4,4 -4,-418.17 670,-418.17 670,4 -4,4"/>
<!-- s -->
<g id="node1" class="node">
<title>s</title>
<ellipse fill="none" stroke="black" cx="18" cy="-39.67" rx="18" ry="18"/>
<text text-anchor="middle" x="18" y="-34.62" font-family="Times,serif" font-size="14.00">s</text>
</g>
<!-- 0 -->
<g id="node2" class="node">
<title>0</title>
<polygon fill="none" stroke="black" points="126,-262.17 72,-262.17 72,-155.17 126,-155.17 126,-262.17"/>
<text text-anchor="start" x="80" y="-244.87" font-family="Times,serif" font-size="14.00">p0:</text>
<text text-anchor="start" x="80" y="-228.37" font-family="Times,serif" font-size="14.00">AB</text>
<text text-anchor="start" x="80" y="-211.87" font-family="Times,serif" font-size="14.00">BC</text>
<text text-anchor="start" x="80" y="-195.37" font-family="Times,serif" font-size="14.00">CD</text>
<text text-anchor="start" x="80" y="-178.87" font-family="Times,serif" font-size="14.00">DA</text>
<text text-anchor="start" x="80" y="-162.37" font-family="Times,serif" font-size="14.00">AB</text>
</g>
<!-- s&#45;&gt;0 -->
<g id="edge3" class="edge">
<title>s&#45;&gt;0</title>
<path fill="none" stroke="black" d="M26.57,-55.88C36.12,-76.31 53.11,-112.63 68.12,-144.74"/>
<polygon fill="black" stroke="black" points="64.86,-146.05 72.27,-153.62 71.2,-143.08 64.86,-146.05"/>
</g>
<!-- 6 -->
<g id="node8" class="node">
<title>6</title>
<polygon fill="none" stroke="black" points="486,-151.92 432,-151.92 432,-61.42 486,-61.42 486,-151.92"/>
<text text-anchor="start" x="440" y="-134.62" font-family="Times,serif" font-size="14.00">p6:</text>
<text text-anchor="start" x="440" y="-118.12" font-family="Times,serif" font-size="14.00">EF</text>
<text text-anchor="start" x="440" y="-101.62" font-family="Times,serif" font-size="14.00">FG</text>
<text text-anchor="start" x="440" y="-85.12" font-family="Times,serif" font-size="14.00">GE</text>
<text text-anchor="start" x="440" y="-68.62" font-family="Times,serif" font-size="14.00">EF</text>
</g>
<!-- s&#45;&gt;6 -->
<g id="edge2" class="edge">
<title>s&#45;&gt;6</title>
<path fill="none" stroke="black" d="M35.04,-33.57C64.76,-22.83 130.56,-1.67 188,-1.67 188,-1.67 188,-1.67 280,-1.67 332.39,-1.67 351.53,5.02 396,-22.67 408.02,-30.16 418.48,-40.9 427.2,-52.21"/>
<polygon fill="black" stroke="black" points="424.24,-54.08 432.94,-60.12 429.91,-49.97 424.24,-54.08"/>
</g>
<!-- 9 -->
<g id="node11" class="node">
<title>9</title>
<polygon fill="none" stroke="black" points="306,-105.67 252,-105.67 252,-31.67 306,-31.67 306,-105.67"/>
<text text-anchor="start" x="260" y="-88.37" font-family="Times,serif" font-size="14.00">p9:</text>
<text text-anchor="start" x="260" y="-71.87" font-family="Times,serif" font-size="14.00">HI</text>
<text text-anchor="start" x="260" y="-55.37" font-family="Times,serif" font-size="14.00">IH</text>
<text text-anchor="start" x="260" y="-38.87" font-family="Times,serif" font-size="14.00">HI</text>
</g>
<!-- s&#45;&gt;9 -->
<g id="edge1" class="edge">
<title>s&#45;&gt;9</title>
<path fill="none" stroke="black" d="M36.43,-40.98C70.84,-43.64 149.89,-50.16 216,-58.67 223.85,-59.68 232.23,-60.93 240.21,-62.19"/>
<polygon fill="black" stroke="black" points="239.58,-65.63 250.01,-63.78 240.7,-58.72 239.58,-65.63"/>
</g>
<!-- 1 -->
<g id="node3" class="node">
<title>1</title>
<polygon fill="none" stroke="black" points="216,-333.17 162,-333.17 162,-226.17 216,-226.17 216,-333.17"/>
<text text-anchor="start" x="170" y="-315.87" font-family="Times,serif" font-size="14.00">p1:</text>
<text text-anchor="start" x="170" y="-299.37" font-family="Times,serif" font-size="14.00">BC</text>
<text text-anchor="start" x="170" y="-282.87" font-family="Times,serif" font-size="14.00">CD</text>
<text text-anchor="start" x="170" y="-266.37" font-family="Times,serif" font-size="14.00">DA</text>
<text text-anchor="start" x="170" y="-249.87" font-family="Times,serif" font-size="14.00">AB</text>
<text text-anchor="start" x="170" y="-233.37" font-family="Times,serif" font-size="14.00">BC</text>
</g>
<!-- 0&#45;&gt;1 -->
<g id="edge5" class="edge">
<title>0&#45;&gt;1</title>
<path fill="none" stroke="black" d="M126.4,-229.98C134.67,-236.65 143.93,-244.12 152.71,-251.2"/>
<polygon fill="black" stroke="black" points="150.46,-253.88 160.44,-257.44 154.85,-248.43 150.46,-253.88"/>
</g>
<!-- 2 -->
<g id="node4" class="node">
<title>2</title>
<polygon fill="none" stroke="black" points="216,-207.67 162,-207.67 162,-67.67 216,-67.67 216,-207.67"/>
<text text-anchor="start" x="170" y="-190.37" font-family="Times,serif" font-size="14.00">p2:</text>
<text text-anchor="start" x="170" y="-173.87" font-family="Times,serif" font-size="14.00">BC</text>
<text text-anchor="start" x="170" y="-157.37" font-family="Times,serif" font-size="14.00">CD</text>
<text text-anchor="start" x="170" y="-140.87" font-family="Times,serif" font-size="14.00">DA</text>
<text text-anchor="start" x="170" y="-124.37" font-family="Times,serif" font-size="14.00">AB</text>
<text text-anchor="start" x="170" y="-107.87" font-family="Times,serif" font-size="14.00">BH</text>
<text text-anchor="start" x="170" y="-91.37" font-family="Times,serif" font-size="14.00">HI</text>
<text text-anchor="start" x="170" y="-74.87" font-family="Times,serif" font-size="14.00">IH</text>
</g>
<!-- 0&#45;&gt;2 -->
<g id="edge4" class="edge">
<title>0&#45;&gt;2</title>
<path fill="none" stroke="black" d="M126.4,-187.37C134.67,-180.7 143.93,-173.23 152.71,-166.15"/>
<polygon fill="black" stroke="black" points="154.85,-168.92 160.44,-159.91 150.46,-163.47 154.85,-168.92"/>
</g>
<!-- 3 -->
<g id="node5" class="node">
<title>3</title>
<polygon fill="none" stroke="black" points="306,-333.17 252,-333.17 252,-226.17 306,-226.17 306,-333.17"/>
<text text-anchor="start" x="260" y="-315.87" font-family="Times,serif" font-size="14.00">p3:</text>
<text text-anchor="start" x="260" y="-299.37" font-family="Times,serif" font-size="14.00">CD</text>
<text text-anchor="start" x="260" y="-282.87" font-family="Times,serif" font-size="14.00">DA</text>
<text text-anchor="start" x="260" y="-266.37" font-family="Times,serif" font-size="14.00">AB</text>
<text text-anchor="start" x="260" y="-249.87" font-family="Times,serif" font-size="14.00">BC</text>
<text text-anchor="start" x="260" y="-233.37" font-family="Times,serif" font-size="14.00">CD</text>
</g>
<!-- 1&#45;&gt;3 -->
<g id="edge6" class="edge">
<title>1&#45;&gt;3</title>
<path fill="none" stroke="black" d="M216.4,-279.67C223.89,-279.67 232.18,-279.67 240.2,-279.67"/>
<polygon fill="black" stroke="black" points="240.1,-283.17 250.1,-279.67 240.1,-276.17 240.1,-283.17"/>
</g>
<!-- 2&#45;&gt;9 -->
<g id="edge7" class="edge">
<title>2&#45;&gt;9</title>
<path fill="none" stroke="black" d="M216.4,-116.97C224.67,-110.49 233.93,-103.23 242.71,-96.35"/>
<polygon fill="black" stroke="black" points="244.71,-99.22 250.42,-90.3 240.4,-93.71 244.71,-99.22"/>
</g>
<!-- 4 -->
<g id="node6" class="node">
<title>4</title>
<polygon fill="none" stroke="black" points="396,-414.17 342,-414.17 342,-307.17 396,-307.17 396,-414.17"/>
<text text-anchor="start" x="350" y="-396.87" font-family="Times,serif" font-size="14.00">p4:</text>
<text text-anchor="start" x="350" y="-380.37" font-family="Times,serif" font-size="14.00">DA</text>
<text text-anchor="start" x="350" y="-363.87" font-family="Times,serif" font-size="14.00">AB</text>
<text text-anchor="start" x="350" y="-347.37" font-family="Times,serif" font-size="14.00">BC</text>
<text text-anchor="start" x="350" y="-330.87" font-family="Times,serif" font-size="14.00">CD</text>
<text text-anchor="start" x="350" y="-314.37" font-family="Times,serif" font-size="14.00">DA</text>
</g>
<!-- 3&#45;&gt;4 -->
<g id="edge9" class="edge">
<title>3&#45;&gt;4</title>
<path fill="none" stroke="black" d="M306.4,-303.98C314.84,-311.75 324.32,-320.47 333.26,-328.7"/>
<polygon fill="black" stroke="black" points="330.77,-331.17 340.5,-335.36 335.51,-326.02 330.77,-331.17"/>
</g>
<!-- 5 -->
<g id="node7" class="node">
<title>5</title>
<polygon fill="none" stroke="black" points="396,-285.92 342,-285.92 342,-129.42 396,-129.42 396,-285.92"/>
<text text-anchor="start" x="350" y="-268.62" font-family="Times,serif" font-size="14.00">p5:</text>
<text text-anchor="start" x="350" y="-252.12" font-family="Times,serif" font-size="14.00">DA</text>
<text text-anchor="start" x="350" y="-235.62" font-family="Times,serif" font-size="14.00">AB</text>
<text text-anchor="start" x="350" y="-219.12" font-family="Times,serif" font-size="14.00">BC</text>
<text text-anchor="start" x="350" y="-202.62" font-family="Times,serif" font-size="14.00">CD</text>
<text text-anchor="start" x="350" y="-186.12" font-family="Times,serif" font-size="14.00">DE</text>
<text text-anchor="start" x="350" y="-169.62" font-family="Times,serif" font-size="14.00">EF</text>
<text text-anchor="start" x="350" y="-153.12" font-family="Times,serif" font-size="14.00">FG</text>
<text text-anchor="start" x="350" y="-136.62" font-family="Times,serif" font-size="14.00">GE</text>
</g>
<!-- 3&#45;&gt;5 -->
<g id="edge8" class="edge">
<title>3&#45;&gt;5</title>
<path fill="none" stroke="black" d="M306.4,-258.07C314.67,-251.31 323.93,-243.73 332.71,-236.55"/>
<polygon fill="black" stroke="black" points="334.92,-239.26 340.44,-230.22 330.49,-233.84 334.92,-239.26"/>
</g>
<!-- 4&#45;&gt;0 -->
<g id="edge10" class="edge">
<title>4&#45;&gt;0</title>
<path fill="none" stroke="black" d="M341.79,-366.1C299.73,-373.25 216.35,-380.85 162,-342.67 138.78,-326.37 124.05,-299.11 114.81,-273.42"/>
<polygon fill="black" stroke="black" points="118.14,-272.36 111.65,-263.98 111.5,-274.57 118.14,-272.36"/>
</g>
<!-- 5&#45;&gt;6 -->
<g id="edge11" class="edge">
<title>5&#45;&gt;6</title>
<path fill="none" stroke="black" d="M396.4,-177.37C405.1,-167.38 414.91,-156.14 424.09,-145.6"/>
<polygon fill="black" stroke="black" points="426.69,-147.94 430.62,-138.1 421.41,-143.34 426.69,-147.94"/>
</g>
<!-- 7 -->
<g id="node9" class="node">
<title>7</title>
<polygon fill="none" stroke="black" points="576,-188.92 522,-188.92 522,-98.42 576,-98.42 576,-188.92"/>
<text text-anchor="start" x="530" y="-171.62" font-family="Times,serif" font-size="14.00">p7:</text>
<text text-anchor="start" x="530" y="-155.12" font-family="Times,serif" font-size="14.00">FG</text>
<text text-anchor="start" x="530" y="-138.62" font-family="Times,serif" font-size="14.00">GE</text>
<text text-anchor="start" x="530" y="-122.12" font-family="Times,serif" font-size="14.00">EF</text>
<text text-anchor="start" x="530" y="-105.62" font-family="Times,serif" font-size="14.00">FG</text>
</g>
<!-- 6&#45;&gt;7 -->
<g id="edge12" class="edge">
<title>6&#45;&gt;7</title>
<path fill="none" stroke="black" d="M486.4,-117.78C494.15,-121.03 502.76,-124.65 511.04,-128.13"/>
<polygon fill="black" stroke="black" points="509.65,-131.35 520.22,-131.99 512.36,-124.89 509.65,-131.35"/>
</g>
<!-- 8 -->
<g id="node10" class="node">
<title>8</title>
<polygon fill="none" stroke="black" points="666,-151.92 612,-151.92 612,-61.42 666,-61.42 666,-151.92"/>
<text text-anchor="start" x="620" y="-134.62" font-family="Times,serif" font-size="14.00">p8:</text>
<text text-anchor="start" x="620" y="-118.12" font-family="Times,serif" font-size="14.00">GE</text>
<text text-anchor="start" x="620" y="-101.62" font-family="Times,serif" font-size="14.00">EF</text>
<text text-anchor="start" x="620" y="-85.12" font-family="Times,serif" font-size="14.00">FG</text>
<text text-anchor="start" x="620" y="-68.62" font-family="Times,serif" font-size="14.00">GE</text>
</g>
<!-- 7&#45;&gt;8 -->
<g id="edge13" class="edge">
<title>7&#45;&gt;8</title>
<path fill="none" stroke="black" d="M576.4,-132.57C584.15,-129.32 592.76,-125.7 601.04,-122.22"/>
<polygon fill="black" stroke="black" points="602.36,-125.46 610.22,-118.35 599.65,-119 602.36,-125.46"/>
</g>
<!-- 8&#45;&gt;6 -->
<g id="edge14" class="edge">
<title>8&#45;&gt;6</title>
<path fill="none" stroke="black" d="M611.77,-97.81C600.85,-94.56 587.95,-91.28 576,-89.67 552.21,-86.47 545.79,-86.47 522,-89.67 513.88,-90.77 505.32,-92.63 497.24,-94.73"/>
<polygon fill="black" stroke="black" points="496.37,-91.34 487.69,-97.4 498.26,-98.08 496.37,-91.34"/>
</g>
<!-- 10 -->
<g id="node12" class="node">
<title>10</title>
<polygon fill="none" stroke="black" points="396,-105.67 342,-105.67 342,-31.67 396,-31.67 396,-105.67"/>
<text text-anchor="start" x="350" y="-88.37" font-family="Times,serif" font-size="14.00">p10:</text>
<text text-anchor="start" x="350" y="-71.87" font-family="Times,serif" font-size="14.00">IH</text>
<text text-anchor="start" x="350" y="-55.37" font-family="Times,serif" font-size="14.00">HI</text>
<text text-anchor="start" x="350" y="-38.87" font-family="Times,serif" font-size="14.00">IH</text>
</g>
<!-- 9&#45;&gt;10 -->
<g id="edge15" class="edge">
<title>9&#45;&gt;10</title>
<path fill="none" stroke="black" d="M306.4,-62.43C313.89,-61.98 322.18,-61.83 330.2,-61.98"/>
<polygon fill="black" stroke="black" points="329.97,-65.48 340.1,-62.37 330.25,-58.48 329.97,-65.48"/>
</g>
<!-- 10&#45;&gt;9 -->
<g id="edge16" class="edge">
<title>10&#45;&gt;9</title>
<path fill="none" stroke="black" d="M341.62,-74.92C334.13,-75.37 325.84,-75.52 317.82,-75.37"/>
<polygon fill="black" stroke="black" points="318.04,-71.87 307.92,-74.98 317.77,-78.87 318.04,-71.87"/>
</g>
</g>
</svg>
