<?xml version="1.0" encoding="UTF-8" standalone="no"?>
<!DOCTYPE svg PUBLIC "-//W3C//DTD SVG 1.1//EN"
 "http://www.w3.org/Graphics/SVG/1.1/DTD/svg11.dtd">
<!-- Generated by graphviz version 11.0.0 (20240428.1522)
 -->
<!-- Title: SimpleGraph Pages: 1 -->
<svg width="702pt" height="201pt"
 viewBox="0.00 0.00 702.47 200.50" xmlns="http://www.w3.org/2000/svg" xmlns:xlink="http://www.w3.org/1999/xlink">
<g id="graph0" class="graph" transform="scale(1 1) rotate(0) translate(4 196.5)">
<title>SimpleGraph</title>
<polygon fill="white" stroke="none" points="-4,4 -4,-196.5 698.47,-196.5 698.47,4 -4,4"/>
<!-- reset -->
<g id="node1" class="node">
<title>reset</title>
</g>
<!-- 0 -->
<g id="node12" class="node">
<title>0</title>
<polygon fill="none" stroke="black" points="100.47,-135 46.47,-135 46.47,-99 100.47,-99 100.47,-135"/>
<text text-anchor="middle" x="73.47" y="-111.95" font-family="Times,serif" font-size="14.00">AB</text>
</g>
<!-- reset&#45;&gt;0 -->
<g id="edge1" class="edge">
<title>reset&#45;&gt;0</title>
<path fill="none" stroke="black" d="M0.77,-117C1.8,-117 17.89,-117 34.57,-117"/>
<polygon fill="black" stroke="black" points="34.51,-120.5 44.51,-117 34.51,-113.5 34.51,-120.5"/>
<text text-anchor="middle" x="23.6" y="-120.2" font-family="Times,serif" font-size="14.00">A</text>
</g>
<!-- 10 -->
<g id="node2" class="node">
<title>10</title>
<polygon fill="none" stroke="black" points="398.97,-182 344.97,-182 344.97,-146 398.97,-146 398.97,-182"/>
<text text-anchor="middle" x="371.97" y="-158.95" font-family="Times,serif" font-size="14.00">IH</text>
</g>
<!-- 9 -->
<g id="node3" class="node">
<title>9</title>
<polygon fill="none" stroke="black" points="299.22,-181 245.22,-181 245.22,-145 299.22,-145 299.22,-181"/>
<text text-anchor="middle" x="272.22" y="-157.95" font-family="Times,serif" font-size="14.00">HI</text>
</g>
<!-- 10&#45;&gt;9 -->
<g id="edge2" class="edge">
<title>10&#45;&gt;9</title>
<path fill="none" stroke="black" d="M344.48,-160.85C338.72,-160.29 332.64,-159.79 326.97,-159.5 321.79,-159.24 316.32,-159.25 310.95,-159.44"/>
<polygon fill="black" stroke="black" points="310.76,-155.94 300.97,-159.99 311.15,-162.93 310.76,-155.94"/>
<text text-anchor="middle" x="322.1" y="-162.2" font-family="Times,serif" font-size="14.00">H</text>
</g>
<!-- 9&#45;&gt;10 -->
<g id="edge3" class="edge">
<title>9&#45;&gt;10</title>
<path fill="none" stroke="black" d="M299.47,-172.09C305.25,-173.71 311.39,-175.16 317.22,-176 322.56,-176.77 328.15,-176.62 333.63,-175.92"/>
<polygon fill="black" stroke="black" points="333.95,-179.42 343.11,-174.1 332.63,-172.55 333.95,-179.42"/>
<text text-anchor="middle" x="322.1" y="-179.2" font-family="Times,serif" font-size="14.00">I</text>
</g>
<!-- 8 -->
<g id="node4" class="node">
<title>8</title>
<polygon fill="none" stroke="black" points="199.47,-181 145.47,-181 145.47,-145 199.47,-145 199.47,-181"/>
<text text-anchor="middle" x="172.47" y="-157.95" font-family="Times,serif" font-size="14.00">BH</text>
</g>
<!-- 8&#45;&gt;9 -->
<g id="edge4" class="edge">
<title>8&#45;&gt;9</title>
<path fill="none" stroke="black" d="M199.92,-163C210.25,-163 222.27,-163 233.48,-163"/>
<polygon fill="black" stroke="black" points="233.23,-166.5 243.23,-163 233.23,-159.5 233.23,-166.5"/>
<text text-anchor="middle" x="222.35" y="-166.2" font-family="Times,serif" font-size="14.00">H</text>
</g>
<!-- 7 -->
<g id="node5" class="node">
<title>7</title>
<polygon fill="none" stroke="black" points="694.47,-63 640.47,-63 640.47,-27 694.47,-27 694.47,-63"/>
<text text-anchor="middle" x="667.47" y="-39.95" font-family="Times,serif" font-size="14.00">GE</text>
</g>
<!-- 5 -->
<g id="node7" class="node">
<title>5</title>
<polygon fill="none" stroke="black" points="497.22,-63 443.22,-63 443.22,-27 497.22,-27 497.22,-63"/>
<text text-anchor="middle" x="470.22" y="-39.95" font-family="Times,serif" font-size="14.00">EF</text>
</g>
<!-- 7&#45;&gt;5 -->
<g id="edge5" class="edge">
<title>7&#45;&gt;5</title>
<path fill="none" stroke="black" d="M640.08,-51.3C634.31,-52.42 628.21,-53.42 622.47,-54 575.05,-58.8 562.64,-58.8 515.22,-54 513.16,-53.79 511.05,-53.53 508.92,-53.23"/>
<polygon fill="black" stroke="black" points="509.55,-49.78 499.1,-51.55 508.37,-56.68 509.55,-49.78"/>
<text text-anchor="middle" x="567.72" y="-60.2" font-family="Times,serif" font-size="14.00">E</text>
</g>
<!-- 6 -->
<g id="node6" class="node">
<title>6</title>
<polygon fill="none" stroke="black" points="594.72,-36 540.72,-36 540.72,0 594.72,0 594.72,-36"/>
<text text-anchor="middle" x="567.72" y="-12.95" font-family="Times,serif" font-size="14.00">FG</text>
</g>
<!-- 6&#45;&gt;7 -->
<g id="edge6" class="edge">
<title>6&#45;&gt;7</title>
<path fill="none" stroke="black" d="M595.17,-25.31C605.6,-28.19 617.78,-31.55 629.08,-34.67"/>
<polygon fill="black" stroke="black" points="627.97,-38 638.54,-37.28 629.83,-31.25 627.97,-38"/>
<text text-anchor="middle" x="617.6" y="-36.2" font-family="Times,serif" font-size="14.00">G</text>
</g>
<!-- 5&#45;&gt;6 -->
<g id="edge7" class="edge">
<title>5&#45;&gt;6</title>
<path fill="none" stroke="black" d="M497.57,-37.55C507.48,-34.75 518.95,-31.5 529.67,-28.48"/>
<polygon fill="black" stroke="black" points="530.33,-31.93 539,-25.84 528.43,-25.19 530.33,-31.93"/>
<text text-anchor="middle" x="518.97" y="-36.2" font-family="Times,serif" font-size="14.00">F</text>
</g>
<!-- 4 -->
<g id="node8" class="node">
<title>4</title>
<polygon fill="none" stroke="black" points="398.97,-63 344.97,-63 344.97,-27 398.97,-27 398.97,-63"/>
<text text-anchor="middle" x="371.97" y="-39.95" font-family="Times,serif" font-size="14.00">DE</text>
</g>
<!-- 4&#45;&gt;5 -->
<g id="edge8" class="edge">
<title>4&#45;&gt;5</title>
<path fill="none" stroke="black" d="M399.27,-45C409.24,-45 420.8,-45 431.62,-45"/>
<polygon fill="black" stroke="black" points="431.44,-48.5 441.44,-45 431.44,-41.5 431.44,-48.5"/>
<text text-anchor="middle" x="421.1" y="-48.2" font-family="Times,serif" font-size="14.00">E</text>
</g>
<!-- 3 -->
<g id="node9" class="node">
<title>3</title>
<polygon fill="none" stroke="black" points="398.97,-123 344.97,-123 344.97,-87 398.97,-87 398.97,-123"/>
<text text-anchor="middle" x="371.97" y="-99.95" font-family="Times,serif" font-size="14.00">DA</text>
</g>
<!-- 3&#45;&gt;0 -->
<g id="edge9" class="edge">
<title>3&#45;&gt;0</title>
<path fill="none" stroke="black" d="M344.72,-106.06C292.02,-108.2 173.19,-113 112.18,-115.47"/>
<polygon fill="black" stroke="black" points="112.14,-111.97 102.29,-115.87 112.43,-118.97 112.14,-111.97"/>
<text text-anchor="middle" x="222.35" y="-114.2" font-family="Times,serif" font-size="14.00">A</text>
</g>
<!-- 2 -->
<g id="node10" class="node">
<title>2</title>
<polygon fill="none" stroke="black" points="299.22,-89 245.22,-89 245.22,-53 299.22,-53 299.22,-89"/>
<text text-anchor="middle" x="272.22" y="-65.95" font-family="Times,serif" font-size="14.00">CD</text>
</g>
<!-- 2&#45;&gt;4 -->
<g id="edge10" class="edge">
<title>2&#45;&gt;4</title>
<path fill="none" stroke="black" d="M299.33,-53.81C305.01,-50.83 311.15,-48.17 317.22,-46.5 322.4,-45.08 327.98,-44.22 333.5,-43.74"/>
<polygon fill="black" stroke="black" points="333.28,-47.25 343.12,-43.31 332.97,-40.26 333.28,-47.25"/>
<text text-anchor="middle" x="322.1" y="-50.2" font-family="Times,serif" font-size="14.00">D</text>
</g>
<!-- 2&#45;&gt;3 -->
<g id="edge11" class="edge">
<title>2&#45;&gt;3</title>
<path fill="none" stroke="black" d="M299.66,-77.96C308.42,-80.44 318.18,-83.4 326.97,-86.5 329.32,-87.33 331.72,-88.22 334.14,-89.14"/>
<polygon fill="black" stroke="black" points="332.65,-92.32 343.24,-92.78 335.25,-85.82 332.65,-92.32"/>
<text text-anchor="middle" x="322.1" y="-89.2" font-family="Times,serif" font-size="14.00">D</text>
</g>
<!-- 1 -->
<g id="node11" class="node">
<title>1</title>
<polygon fill="none" stroke="black" points="199.47,-89 145.47,-89 145.47,-53 199.47,-53 199.47,-89"/>
<text text-anchor="middle" x="172.47" y="-65.95" font-family="Times,serif" font-size="14.00">BC</text>
</g>
<!-- 1&#45;&gt;2 -->
<g id="edge12" class="edge">
<title>1&#45;&gt;2</title>
<path fill="none" stroke="black" d="M199.92,-71C210.25,-71 222.27,-71 233.48,-71"/>
<polygon fill="black" stroke="black" points="233.23,-74.5 243.23,-71 233.23,-67.5 233.23,-74.5"/>
<text text-anchor="middle" x="222.35" y="-74.2" font-family="Times,serif" font-size="14.00">C</text>
</g>
<!-- 0&#45;&gt;8 -->
<g id="edge13" class="edge">
<title>0&#45;&gt;8</title>
<path fill="none" stroke="black" d="M100.72,-129.45C111.29,-134.46 123.65,-140.32 135.07,-145.74"/>
<polygon fill="black" stroke="black" points="133.3,-148.77 143.83,-149.89 136.3,-142.45 133.3,-148.77"/>
<text text-anchor="middle" x="122.97" y="-144.2" font-family="Times,serif" font-size="14.00">B</text>
</g>
<!-- 0&#45;&gt;1 -->
<g id="edge14" class="edge">
<title>0&#45;&gt;1</title>
<path fill="none" stroke="black" d="M97.82,-98.75C104.26,-94.3 111.42,-89.86 118.47,-86.5 123.4,-84.15 128.76,-82.07 134.12,-80.27"/>
<polygon fill="black" stroke="black" points="134.99,-83.67 143.53,-77.39 132.94,-76.97 134.99,-83.67"/>
<text text-anchor="middle" x="122.97" y="-89.2" font-family="Times,serif" font-size="14.00">B</text>
</g>
</g>
</svg>
