<?xml version="1.0" encoding="UTF-8" standalone="no"?>
<!DOCTYPE svg PUBLIC "-//W3C//DTD SVG 1.1//EN"
 "http://www.w3.org/Graphics/SVG/1.1/DTD/svg11.dtd">
<!-- Generated by graphviz version 11.0.0 (20240428.1522)
 -->
<!-- Title: SimpleGraph Pages: 1 -->
<svg width="682pt" height="201pt"
 viewBox="0.00 0.00 682.22 200.50" xmlns="http://www.w3.org/2000/svg" xmlns:xlink="http://www.w3.org/1999/xlink">
<g id="graph0" class="graph" transform="scale(1 1) rotate(0) translate(4 196.5)">
<title>SimpleGraph</title>
<polygon fill="white" stroke="none" points="-4,4 -4,-196.5 678.22,-196.5 678.22,4 -4,4"/>
<!-- reset -->
<g id="node1" class="node">
<title>reset</title>
</g>
<!-- 0 -->
<g id="node12" class="node">
<title>0</title>
<polygon fill="none" stroke="black" points="96.72,-135 42.72,-135 42.72,-99 96.72,-99 96.72,-135"/>
<text text-anchor="middle" x="69.72" y="-111.95" font-family="Times,serif" font-size="14.00">ab</text>
</g>
<!-- reset&#45;&gt;0 -->
<g id="edge1" class="edge">
<title>reset&#45;&gt;0</title>
<path fill="none" stroke="black" d="M0.77,-117C1.71,-117 16.1,-117 31.4,-117"/>
<polygon fill="black" stroke="black" points="31,-120.5 41,-117 31,-113.5 31,-120.5"/>
<text text-anchor="middle" x="21.72" y="-120.2" font-family="Times,serif" font-size="14.00">a</text>
</g>
<!-- 10 -->
<g id="node2" class="node">
<title>10</title>
<polygon fill="none" stroke="black" points="386.97,-182 332.97,-182 332.97,-146 386.97,-146 386.97,-182"/>
<text text-anchor="middle" x="359.97" y="-158.95" font-family="Times,serif" font-size="14.00">ih</text>
</g>
<!-- 9 -->
<g id="node3" class="node">
<title>9</title>
<polygon fill="none" stroke="black" points="290.22,-181 236.22,-181 236.22,-145 290.22,-145 290.22,-181"/>
<text text-anchor="middle" x="263.22" y="-157.95" font-family="Times,serif" font-size="14.00">hi</text>
</g>
<!-- 10&#45;&gt;9 -->
<g id="edge2" class="edge">
<title>10&#45;&gt;9</title>
<path fill="none" stroke="black" d="M332.48,-160.85C326.72,-160.29 320.64,-159.79 314.97,-159.5 310.75,-159.28 306.34,-159.27 301.95,-159.39"/>
<polygon fill="black" stroke="black" points="301.87,-155.89 292.06,-159.9 302.23,-162.88 301.87,-155.89"/>
<text text-anchor="middle" x="311.6" y="-162.2" font-family="Times,serif" font-size="14.00">h</text>
</g>
<!-- 9&#45;&gt;10 -->
<g id="edge3" class="edge">
<title>9&#45;&gt;10</title>
<path fill="none" stroke="black" d="M290.47,-172.09C296.25,-173.71 302.39,-175.16 308.22,-176 312.46,-176.61 316.86,-176.59 321.22,-176.15"/>
<polygon fill="black" stroke="black" points="321.82,-179.59 331.05,-174.4 320.59,-172.7 321.82,-179.59"/>
<text text-anchor="middle" x="311.6" y="-179.2" font-family="Times,serif" font-size="14.00">i</text>
</g>
<!-- 8 -->
<g id="node4" class="node">
<title>8</title>
<polygon fill="none" stroke="black" points="193.47,-181 139.47,-181 139.47,-145 193.47,-145 193.47,-181"/>
<text text-anchor="middle" x="166.47" y="-157.95" font-family="Times,serif" font-size="14.00">bh</text>
</g>
<!-- 8&#45;&gt;9 -->
<g id="edge4" class="edge">
<title>8&#45;&gt;9</title>
<path fill="none" stroke="black" d="M193.86,-163C203.41,-163 214.38,-163 224.7,-163"/>
<polygon fill="black" stroke="black" points="224.45,-166.5 234.45,-163 224.45,-159.5 224.45,-166.5"/>
<text text-anchor="middle" x="214.85" y="-166.2" font-family="Times,serif" font-size="14.00">h</text>
</g>
<!-- 7 -->
<g id="node5" class="node">
<title>7</title>
<polygon fill="none" stroke="black" points="674.22,-63 620.22,-63 620.22,-27 674.22,-27 674.22,-63"/>
<text text-anchor="middle" x="647.22" y="-39.95" font-family="Times,serif" font-size="14.00">ge</text>
</g>
<!-- 5 -->
<g id="node7" class="node">
<title>5</title>
<polygon fill="none" stroke="black" points="482.97,-63 428.97,-63 428.97,-27 482.97,-27 482.97,-63"/>
<text text-anchor="middle" x="455.97" y="-39.95" font-family="Times,serif" font-size="14.00">ef</text>
</g>
<!-- 7&#45;&gt;5 -->
<g id="edge5" class="edge">
<title>7&#45;&gt;5</title>
<path fill="none" stroke="black" d="M619.83,-51.3C614.06,-52.42 607.96,-53.42 602.22,-54 557.45,-58.53 545.77,-57.28 500.97,-53 498.91,-52.8 496.81,-52.56 494.69,-52.29"/>
<polygon fill="black" stroke="black" points="495.3,-48.84 484.89,-50.78 494.24,-55.76 495.3,-48.84"/>
<text text-anchor="middle" x="550.47" y="-59.2" font-family="Times,serif" font-size="14.00">e</text>
</g>
<!-- 6 -->
<g id="node6" class="node">
<title>6</title>
<polygon fill="none" stroke="black" points="577.47,-36 523.47,-36 523.47,0 577.47,0 577.47,-36"/>
<text text-anchor="middle" x="550.47" y="-12.95" font-family="Times,serif" font-size="14.00">fg</text>
</g>
<!-- 6&#45;&gt;7 -->
<g id="edge6" class="edge">
<title>6&#45;&gt;7</title>
<path fill="none" stroke="black" d="M577.86,-25.52C587.51,-28.27 598.62,-31.44 609.04,-34.4"/>
<polygon fill="black" stroke="black" points="607.94,-37.73 618.51,-37.1 609.85,-31 607.94,-37.73"/>
<text text-anchor="middle" x="598.85" y="-36.2" font-family="Times,serif" font-size="14.00">g</text>
</g>
<!-- 5&#45;&gt;6 -->
<g id="edge7" class="edge">
<title>5&#45;&gt;6</title>
<path fill="none" stroke="black" d="M483.23,-37.34C492.21,-34.71 502.44,-31.73 512.13,-28.9"/>
<polygon fill="black" stroke="black" points="513.07,-32.27 521.69,-26.11 511.11,-25.55 513.07,-32.27"/>
<text text-anchor="middle" x="503.22" y="-35.2" font-family="Times,serif" font-size="14.00">f</text>
</g>
<!-- 4 -->
<g id="node8" class="node">
<title>4</title>
<polygon fill="none" stroke="black" points="386.97,-63 332.97,-63 332.97,-27 386.97,-27 386.97,-63"/>
<text text-anchor="middle" x="359.97" y="-39.95" font-family="Times,serif" font-size="14.00">de</text>
</g>
<!-- 4&#45;&gt;5 -->
<g id="edge8" class="edge">
<title>4&#45;&gt;5</title>
<path fill="none" stroke="black" d="M387.4,-45C396.69,-45 407.32,-45 417.35,-45"/>
<polygon fill="black" stroke="black" points="417.22,-48.5 427.22,-45 417.22,-41.5 417.22,-48.5"/>
<text text-anchor="middle" x="407.97" y="-48.2" font-family="Times,serif" font-size="14.00">e</text>
</g>
<!-- 3 -->
<g id="node9" class="node">
<title>3</title>
<polygon fill="none" stroke="black" points="386.97,-123 332.97,-123 332.97,-87 386.97,-87 386.97,-123"/>
<text text-anchor="middle" x="359.97" y="-99.95" font-family="Times,serif" font-size="14.00">da</text>
</g>
<!-- 3&#45;&gt;0 -->
<g id="edge9" class="edge">
<title>3&#45;&gt;0</title>
<path fill="none" stroke="black" d="M332.79,-106.09C281.57,-108.22 167.92,-112.95 108.53,-115.43"/>
<polygon fill="black" stroke="black" points="108.42,-111.93 98.58,-115.84 108.71,-118.92 108.42,-111.93"/>
<text text-anchor="middle" x="214.85" y="-114.2" font-family="Times,serif" font-size="14.00">a</text>
</g>
<!-- 2 -->
<g id="node10" class="node">
<title>2</title>
<polygon fill="none" stroke="black" points="290.22,-89 236.22,-89 236.22,-53 290.22,-53 290.22,-89"/>
<text text-anchor="middle" x="263.22" y="-65.95" font-family="Times,serif" font-size="14.00">cd</text>
</g>
<!-- 2&#45;&gt;4 -->
<g id="edge10" class="edge">
<title>2&#45;&gt;4</title>
<path fill="none" stroke="black" d="M290.33,-53.81C296.02,-50.84 302.15,-48.17 308.22,-46.5 312.33,-45.37 316.69,-44.61 321.08,-44.13"/>
<polygon fill="black" stroke="black" points="321.26,-47.62 331.03,-43.51 320.83,-40.63 321.26,-47.62"/>
<text text-anchor="middle" x="311.6" y="-50.2" font-family="Times,serif" font-size="14.00">d</text>
</g>
<!-- 2&#45;&gt;3 -->
<g id="edge11" class="edge">
<title>2&#45;&gt;3</title>
<path fill="none" stroke="black" d="M290.47,-78.46C298.4,-80.86 307.09,-83.65 314.97,-86.5 317.31,-87.35 319.71,-88.25 322.12,-89.19"/>
<polygon fill="black" stroke="black" points="320.63,-92.36 331.21,-92.84 323.24,-85.86 320.63,-92.36"/>
<text text-anchor="middle" x="311.6" y="-89.2" font-family="Times,serif" font-size="14.00">d</text>
</g>
<!-- 1 -->
<g id="node11" class="node">
<title>1</title>
<polygon fill="none" stroke="black" points="193.47,-89 139.47,-89 139.47,-53 193.47,-53 193.47,-89"/>
<text text-anchor="middle" x="166.47" y="-65.95" font-family="Times,serif" font-size="14.00">bc</text>
</g>
<!-- 1&#45;&gt;2 -->
<g id="edge12" class="edge">
<title>1&#45;&gt;2</title>
<path fill="none" stroke="black" d="M193.86,-71C203.41,-71 214.38,-71 224.7,-71"/>
<polygon fill="black" stroke="black" points="224.45,-74.5 234.45,-71 224.45,-67.5 224.45,-74.5"/>
<text text-anchor="middle" x="214.85" y="-74.2" font-family="Times,serif" font-size="14.00">c</text>
</g>
<!-- 0&#45;&gt;8 -->
<g id="edge13" class="edge">
<title>0&#45;&gt;8</title>
<path fill="none" stroke="black" d="M97.11,-129.81C106.97,-134.6 118.34,-140.12 128.95,-145.27"/>
<polygon fill="black" stroke="black" points="127.33,-148.38 137.86,-149.59 130.39,-142.08 127.33,-148.38"/>
<text text-anchor="middle" x="118.1" y="-144.2" font-family="Times,serif" font-size="14.00">b</text>
</g>
<!-- 0&#45;&gt;1 -->
<g id="edge14" class="edge">
<title>0&#45;&gt;1</title>
<path fill="none" stroke="black" d="M94.1,-98.81C100.54,-94.36 107.69,-89.9 114.72,-86.5 119.01,-84.42 123.64,-82.55 128.3,-80.89"/>
<polygon fill="black" stroke="black" points="129.2,-84.27 137.62,-77.85 127.03,-77.62 129.2,-84.27"/>
<text text-anchor="middle" x="118.1" y="-89.2" font-family="Times,serif" font-size="14.00">b</text>
</g>
</g>
</svg>
